<?xml version="1.0" encoding="utf-8"?>
<!-- Generator: Adobe Illustrator 27.5.0, SVG Export Plug-In . SVG Version: 6.00 Build 0)  -->
<svg version="1.1" id="Layer_1" xmlns="http://www.w3.org/2000/svg" xmlns:xlink="http://www.w3.org/1999/xlink" x="0px" y="0px"
	 viewBox="0 0 241.703 275.641" style="enable-background:new 0 0 241.703 275.641;" xml:space="preserve">
<g>
	<g>
		<path style="fill:#FFFFFF;" d="M234.643,144.999c-0.251-0.684-0.463-1.257-0.6-1.688c-3.283-10.342-14.399-32.767-27.026-42.388
			c-4.553-14.913-10.993-29.302-18.708-41.798c4.069-6.781,7.059-15.275,7.366-19.569c0.756-10.588-16.136-23.427-30.496-26.509
			c-1.416-0.304-2.84-0.458-4.23-0.458c-6.688,0-11.439,3.449-14.194,6.249c-0.183-0.084-0.365-0.166-0.549-0.249l-0.567-0.254
			c-0.383-0.167-0.766-0.325-1.15-0.482l-0.104-0.043c-0.004-0.002-0.092-0.038-0.096-0.04l-0.688-0.277
			c-0.412-0.162-0.824-0.317-1.246-0.473c-0.273-0.101-0.545-0.197-0.795-0.283c-0.424-0.149-0.848-0.296-1.25-0.426
			c-0.19-0.063-0.383-0.122-0.575-0.182l-0.209-0.063c-1.107-0.344-2.135-0.631-3.073-0.861c-0.032-0.009-0.086-0.024-0.118-0.03
			c-11.714-2.87-23.533-1.608-35.015,3.663c-2.756-2.8-7.508-6.248-14.194-6.248c-1.391,0-2.813,0.154-4.231,0.458
			c-14.358,3.082-31.25,15.921-30.494,26.509c0.307,4.294,3.297,12.788,7.368,19.571c-2.517,4.076-4.909,8.369-7.132,12.799
			c-0.01,0.02-0.02,0.038-0.028,0.058c-0.688,1.368-1.387,2.813-2.077,4.289l-0.146,0.31c-0.671,1.441-1.327,2.893-1.963,4.357
			c-0.012,0.026-0.023,0.053-0.035,0.079c-1.281,2.956-2.517,6.023-3.671,9.117l-0.148,0.396c-0.546,1.475-1.074,2.956-1.59,4.467
			l-0.109,0.322c-0.643,1.894-1.249,3.771-1.81,5.601c-12.628,9.619-23.746,32.046-27.029,42.39
			c-0.136,0.431-0.349,1.004-0.599,1.688c-1.636,4.473-4.534,12.396-2.979,19.07c-1.082,3.195-0.218,6.645,2.413,8.609
			c0.809,0.603,1.726,1.017,2.705,1.227c0.466,0.795,1.088,1.5,1.856,2.075c1.989,1.484,4.729,1.782,7.123,0.855
			c0.824,0.358,1.721,0.543,2.65,0.543c2.345,0,4.638-1.198,6.132-3.202c0.444-0.595,0.804-1.24,1.067-1.913
			c0.5-0.372,1.016-0.779,1.547-1.223c4.785,22.575,16.691,40.689,34.796,52.833l2.692,25.009
			c-2.484,3.082-4.718,6.995-4.718,10.256c0,1.602,0.55,4.474,3.925,6.996c0.962,1.472,2.621,2.42,4.469,2.42
			c0.035,0,0.071-0.001,0.11-0.002c1.053,0.4,2.193,0.754,3.413,1.061c0.547,0.225,1.13,0.358,1.727,0.392
			c1.406,0.286,2.878,0.509,4.4,0.667c0.833,0.53,1.817,0.834,2.862,0.834c0.3,0,0.689-0.036,0.982-0.091
			c0.489-0.093,0.949-0.248,1.375-0.457c0.1,0.001,0.198,0.001,0.299,0.001c11.729,0,23.563-3.655,23.563-11.821
			c0-0.012,0-0.025,0-0.037l2.268-20.072c0.775,0.041,1.551,0.075,2.326,0.1l0.534,0.017c2.038,0.055,4.085,0.055,6.156,0
			l0.507-0.017c0.779-0.024,1.558-0.059,2.335-0.1l2.268,20.072c0,0.013,0,0.025,0,0.037c0,8.166,11.834,11.821,23.563,11.821
			c0.099,0,0.198,0,0.298-0.001c0.426,0.209,0.886,0.364,1.373,0.456c0.295,0.056,0.685,0.092,0.984,0.092
			c1.047,0,2.035-0.306,2.868-0.835c1.52-0.157,2.991-0.38,4.395-0.666c0.598-0.033,1.181-0.167,1.728-0.392
			c1.219-0.308,2.36-0.661,3.413-1.061c0.038,0.001,0.075,0.002,0.11,0.002c1.853,0,3.517-0.954,4.475-2.425
			c3.369-2.522,3.918-5.391,3.918-6.991c0-3.261-2.232-7.174-4.717-10.256l1.082-10.042c15.002-1.382,30.312-6.87,45.567-16.347
			c0.263-0.163,0.509-0.351,0.736-0.559c2.742-2.538,3.727-5.495,2.701-8.113c-0.561-1.432-2.162-3.833-6.582-3.833
			c-0.862,0-1.821,0.083-2.956,0.26c-2.999,0.466-12.123,1.882-22.084,1.882c-0.648,0-1.288-0.006-1.921-0.018
			c10.367-11.067,17.507-25.035,20.938-41.076c0.533,0.444,1.05,0.854,1.553,1.228c0.264,0.672,0.622,1.316,1.064,1.908
			c1.497,2.009,3.791,3.207,6.136,3.207c0.929,0,1.825-0.185,2.65-0.543c2.391,0.926,5.132,0.631,7.128-0.86
			c0.767-0.572,1.387-1.276,1.852-2.07c0.979-0.211,1.896-0.625,2.706-1.229c2.629-1.963,3.492-5.412,2.41-8.607
			C239.177,157.395,236.278,149.472,234.643,144.999z"/>
		<path style="fill:#F1F1F1;" d="M234.063,144.23c-0.25-0.683-0.462-1.256-0.599-1.688c-3.282-10.342-14.4-32.765-27.026-42.388
			c-4.554-14.912-10.994-29.302-18.708-41.798c4.068-6.78,7.059-15.274,7.366-19.568c0.755-10.589-16.137-23.426-30.496-26.51
			c-1.416-0.303-2.839-0.458-4.23-0.458c-6.688,0-11.44,3.45-14.194,6.25c-0.184-0.083-0.365-0.166-0.549-0.249l-0.566-0.255
			c-0.384-0.167-0.768-0.325-1.152-0.482l-0.104-0.042c-0.004-0.002-0.091-0.038-0.096-0.04l-0.688-0.276
			c-0.411-0.163-0.824-0.319-1.244-0.474c-0.274-0.101-0.547-0.197-0.796-0.283c-0.425-0.149-0.847-0.296-1.251-0.427
			c-0.191-0.063-0.382-0.122-0.574-0.18l-0.21-0.063c-1.107-0.344-2.137-0.624-3.072-0.863c-0.032-0.009-0.086-0.021-0.118-0.03
			c-11.687-2.979-23.533-1.608-35.016,3.664c-2.755-2.8-7.507-6.249-14.193-6.249c-1.39,0-2.814,0.155-4.231,0.458
			c-14.358,3.084-31.251,15.921-30.494,26.51c0.307,4.293,3.297,12.788,7.367,19.57c-2.517,4.076-4.866,8.391-7.132,12.801
			c-0.01,0.017-0.019,0.036-0.028,0.056c-0.686,1.369-1.387,2.814-2.076,4.29l-0.146,0.309c-0.669,1.443-1.275,2.916-1.962,4.358
			c-0.012,0.025-0.024,0.054-0.035,0.079c-1.295,2.949-2.517,6.022-3.671,9.116l-0.147,0.396c-0.545,1.476-1.073,2.957-1.591,4.468
			l-0.108,0.323c-0.644,1.893-1.25,3.771-1.81,5.599c-12.628,9.62-23.746,32.047-27.029,42.39c-0.137,0.432-0.348,1.005-0.598,1.688
			c-1.637,4.475-4.536,12.396-2.981,19.071c-1.083,3.194-0.218,6.644,2.413,8.61c0.808,0.603,1.725,1.016,2.704,1.225
			c0.467,0.796,1.088,1.501,1.856,2.076c1.989,1.483,4.729,1.782,7.125,0.855c0.823,0.357,1.72,0.543,2.649,0.543
			c2.344,0,4.638-1.198,6.131-3.203c0.444-0.595,0.804-1.238,1.068-1.913c0.5-0.371,1.015-0.778,1.547-1.221
			c4.785,22.574,16.69,40.688,34.797,52.832l2.69,25.008c-2.483,3.083-4.717,6.995-4.717,10.257c0,1.601,0.549,4.474,3.924,6.996
			c0.962,1.471,2.622,2.419,4.47,2.419c0.034,0,0.072-0.001,0.109-0.001c1.054,0.399,2.193,0.754,3.413,1.061
			c0.547,0.225,1.131,0.358,1.729,0.392c1.405,0.286,2.877,0.508,4.399,0.666c0.833,0.531,1.818,0.834,2.864,0.834
			c0.299,0,0.688-0.036,0.981-0.091c0.488-0.092,0.949-0.246,1.374-0.456c0.1,0.001,0.199,0.001,0.301,0.001
			c11.726,0,23.56-3.656,23.56-11.821c0-0.013,0-0.025,0-0.036l2.269-20.073c0.774,0.04,1.55,0.075,2.327,0.099l0.532,0.018
			c2.039,0.055,4.086,0.055,6.157,0l0.506-0.018c0.779-0.023,1.559-0.059,2.336-0.099l2.267,20.073c0,0.011,0,0.023,0,0.036
			c0,8.165,11.834,11.821,23.563,11.821c0.099,0,0.199,0,0.297-0.001c0.426,0.21,0.886,0.363,1.374,0.455
			c0.295,0.056,0.684,0.092,0.984,0.092c1.048,0,2.035-0.305,2.867-0.835c1.521-0.157,2.992-0.379,4.396-0.665
			c0.598-0.033,1.181-0.167,1.727-0.392c1.22-0.308,2.361-0.662,3.414-1.061c0.038,0,0.075,0.001,0.11,0.001
			c1.853,0,3.517-0.953,4.476-2.425c3.367-2.521,3.918-5.391,3.918-6.99c0-3.262-2.234-7.174-4.719-10.257l1.083-10.041
			c15.003-1.382,30.312-6.871,45.567-16.347c0.262-0.164,0.511-0.351,0.736-0.56c2.749-2.532,3.726-5.496,2.701-8.114
			c-0.562-1.431-2.163-3.833-6.583-3.833c-0.861,0-1.821,0.084-2.955,0.26c-2.999,0.466-12.124,1.882-22.085,1.882
			c-0.647,0-1.288-0.005-1.92-0.018c10.368-11.066,17.507-25.035,20.937-41.076c0.533,0.446,1.051,0.854,1.553,1.227
			c0.266,0.673,0.623,1.316,1.064,1.909c1.498,2.009,3.791,3.207,6.136,3.207c0.929,0,1.825-0.186,2.651-0.543
			c2.39,0.925,5.131,0.63,7.127-0.861c0.767-0.571,1.388-1.275,1.854-2.07c0.979-0.21,1.895-0.624,2.706-1.229
			c2.629-1.963,3.491-5.412,2.409-8.606C238.597,156.626,235.698,148.704,234.063,144.23z"/>
		<path style="fill:#E2E2E2;" d="M233.484,143.463c-0.25-0.685-0.463-1.258-0.6-1.689c-3.282-10.342-14.4-32.766-27.025-42.388
			c-4.555-14.912-10.995-29.301-18.708-41.799c4.069-6.779,7.059-15.274,7.364-19.568c0.757-10.588-16.136-23.426-30.495-26.509
			c-1.416-0.304-2.84-0.459-4.23-0.459c-6.688,0-11.44,3.45-14.193,6.25c-0.185-0.083-0.367-0.165-0.55-0.249l-0.567-0.255
			c-0.383-0.166-0.767-0.323-1.151-0.481l-0.102-0.043c0,0-0.093-0.038-0.097-0.04l-0.688-0.277
			c-0.412-0.162-0.824-0.317-1.246-0.473c-0.272-0.101-0.546-0.196-0.794-0.283c-0.425-0.149-0.848-0.297-1.25-0.427
			c-0.191-0.063-0.384-0.122-0.576-0.18l-0.209-0.063c-1.107-0.345-2.138-0.624-3.073-0.863c-0.032-0.008-0.086-0.021-0.118-0.03
			c-11.687-2.977-23.532-1.607-35.015,3.663c-2.755-2.799-7.509-6.248-14.194-6.248c-1.391,0-2.814,0.155-4.231,0.459
			C67.376,14.594,50.484,27.432,51.24,38.02c0.307,4.293,3.297,12.789,7.368,19.571c-2.517,4.075-4.909,8.368-7.133,12.799
			c-0.009,0.019-0.018,0.039-0.027,0.057c-0.671,1.377-1.388,2.814-2.077,4.29l-0.146,0.31c-0.671,1.442-1.309,2.9-1.963,4.357
			c-0.013,0.026-0.023,0.053-0.034,0.079c-1.229,2.978-2.517,6.022-3.672,9.116l-0.147,0.396c-0.546,1.476-1.073,2.956-1.59,4.467
			l-0.108,0.323c-0.645,1.893-1.251,3.771-1.811,5.6c-12.627,9.619-23.746,32.046-27.029,42.39
			c-0.137,0.431-0.349,1.004-0.599,1.689c-1.635,4.472-4.534,12.395-2.981,19.069c-1.081,3.195-0.217,6.644,2.415,8.61
			c0.807,0.602,1.724,1.017,2.703,1.225c0.466,0.796,1.09,1.501,1.856,2.076c1.989,1.484,4.73,1.781,7.124,0.855
			c0.824,0.357,1.72,0.543,2.65,0.543c2.345,0,4.638-1.198,6.132-3.202c0.444-0.595,0.803-1.24,1.067-1.914
			c0.5-0.37,1.017-0.778,1.548-1.222c4.783,22.575,16.69,40.688,34.795,52.833l2.692,25.009c-2.485,3.082-4.717,6.995-4.717,10.257
			c0,1.6,0.549,4.472,3.924,6.994c0.961,1.473,2.621,2.421,4.469,2.421c0.035,0,0.071-0.001,0.11-0.001
			c1.052,0.398,2.192,0.753,3.413,1.06c0.546,0.227,1.13,0.359,1.728,0.393c1.404,0.286,2.877,0.508,4.399,0.667
			c0.832,0.529,1.817,0.833,2.862,0.833c0.3,0,0.689-0.036,0.982-0.092c0.488-0.092,0.949-0.246,1.374-0.455
			c0.1,0.001,0.199,0.001,0.3,0.001c11.729,0,23.563-3.657,23.563-11.821c0-0.014,0-0.025,0-0.037l2.268-20.073
			c0.774,0.042,1.552,0.074,2.327,0.1l0.532,0.016c2.039,0.056,4.086,0.056,6.157,0l0.506-0.016c0.78-0.025,1.559-0.058,2.335-0.1
			l2.268,20.073c0,0.012,0,0.023,0,0.037c0,8.164,11.835,11.821,23.563,11.821c0.1,0,0.199,0,0.299-0.001
			c0.425,0.209,0.886,0.361,1.373,0.454c0.295,0.056,0.685,0.093,0.985,0.093c1.047,0,2.034-0.306,2.866-0.835
			c1.521-0.157,2.992-0.379,4.396-0.665c0.596-0.034,1.18-0.167,1.726-0.393c1.22-0.307,2.361-0.661,3.413-1.06
			c0.04,0,0.076,0.001,0.111,0.001c1.853,0,3.516-0.954,4.475-2.424c3.368-2.522,3.918-5.392,3.918-6.991
			c0-3.262-2.232-7.175-4.718-10.257l1.083-10.041c15.002-1.383,30.311-6.872,45.567-16.348c0.263-0.163,0.51-0.351,0.736-0.559
			c2.743-2.538,3.727-5.496,2.701-8.114c-0.562-1.43-2.161-3.831-6.581-3.831c-0.863,0-1.822,0.083-2.958,0.258
			c-2.999,0.467-12.123,1.883-22.083,1.883c-0.648,0-1.289-0.005-1.921-0.019c10.367-11.066,17.507-25.035,20.936-41.076
			c0.534,0.446,1.051,0.854,1.553,1.228c0.265,0.673,0.624,1.318,1.065,1.909c1.497,2.009,3.79,3.207,6.135,3.207
			c0.931,0,1.826-0.186,2.65-0.543c2.392,0.925,5.133,0.631,7.129-0.86c0.766-0.572,1.387-1.277,1.854-2.071
			c0.977-0.21,1.895-0.624,2.705-1.229c2.63-1.963,3.492-5.411,2.411-8.607C238.018,155.857,235.12,147.935,233.484,143.463z"/>
		<path style="fill:#D4D4D4;" d="M232.904,142.692c-0.251-0.684-0.463-1.257-0.599-1.688c-3.284-10.341-14.399-32.766-27.026-42.388
			c-4.553-14.912-10.993-29.302-18.709-41.797c4.07-6.781,7.06-15.274,7.366-19.569c0.757-10.588-16.135-23.428-30.496-26.51
			c-1.415-0.303-2.84-0.458-4.23-0.458c-6.686,0-11.439,3.449-14.194,6.249c-0.182-0.084-0.365-0.166-0.549-0.247l-0.567-0.256
			c-0.382-0.167-0.766-0.324-1.149-0.482l-0.104-0.044c0,0-0.093-0.038-0.097-0.039l-0.689-0.277
			c-0.412-0.163-0.823-0.317-1.246-0.473c-0.271-0.101-0.545-0.197-0.794-0.283c-0.425-0.148-0.849-0.295-1.25-0.426
			c-0.19-0.063-0.383-0.123-0.576-0.183l-0.208-0.063c-1.108-0.344-2.135-0.632-3.074-0.861c-0.031-0.008-0.086-0.022-0.118-0.029
			c-11.728-2.816-23.532-1.609-35.014,3.663c-2.756-2.801-7.509-6.249-14.195-6.249c-1.391,0-2.813,0.155-4.231,0.458
			c-14.358,3.082-31.249,15.922-30.493,26.51c0.307,4.294,3.297,12.788,7.368,19.571c-2.518,4.075-5.004,8.321-7.133,12.799
			c-0.009,0.02-0.019,0.038-0.028,0.058c-0.712,1.354-1.386,2.813-2.077,4.288l-0.146,0.31c-0.671,1.441-1.33,2.892-1.963,4.358
			c-0.011,0.026-0.022,0.052-0.035,0.079c-1.3,2.948-2.517,6.023-3.67,9.117l-0.147,0.396c-0.546,1.474-1.075,2.956-1.59,4.467
			l-0.11,0.321c-0.642,1.895-1.248,3.771-1.809,5.602c-12.628,9.619-23.746,32.045-27.029,42.389c-0.137,0.431-0.35,1.004-0.6,1.688
			c-1.636,4.474-4.533,12.396-2.979,19.071c-1.081,3.195-0.218,6.645,2.413,8.609c0.81,0.602,1.727,1.016,2.706,1.226
			c0.465,0.795,1.087,1.5,1.854,2.075c1.99,1.484,4.73,1.782,7.123,0.855c0.824,0.358,1.721,0.544,2.65,0.544
			c2.345,0,4.638-1.199,6.133-3.202c0.443-0.595,0.804-1.24,1.067-1.913c0.5-0.372,1.015-0.779,1.546-1.224
			c4.786,22.576,16.692,40.69,34.796,52.833l2.692,25.009c-2.484,3.084-4.718,6.995-4.718,10.256c0,1.602,0.55,4.474,3.925,6.996
			c0.963,1.472,2.622,2.42,4.469,2.42c0.036,0,0.071,0,0.111-0.001c1.052,0.4,2.193,0.754,3.412,1.06
			c0.548,0.226,1.131,0.358,1.727,0.393c1.406,0.285,2.879,0.508,4.4,0.667c0.834,0.53,1.818,0.834,2.862,0.834
			c0.3,0,0.69-0.036,0.982-0.091c0.49-0.094,0.95-0.249,1.376-0.458c0.1,0.001,0.197,0.001,0.298,0.001
			c11.729,0,23.563-3.655,23.563-11.821c0-0.011,0-0.024,0-0.036l2.268-20.073c0.775,0.041,1.55,0.075,2.326,0.1l0.533,0.018
			c2.038,0.054,4.085,0.054,6.156,0l0.508-0.018c0.779-0.024,1.557-0.059,2.335-0.1l2.268,20.073c0,0.012,0,0.025,0,0.036
			c0,8.166,11.834,11.821,23.562,11.821c0.099,0,0.199,0,0.299-0.001c0.426,0.209,0.885,0.363,1.372,0.456
			c0.296,0.056,0.686,0.093,0.985,0.093c1.047,0,2.034-0.307,2.868-0.835c1.52-0.158,2.99-0.381,4.395-0.666
			c0.597-0.034,1.18-0.167,1.727-0.393c1.22-0.307,2.36-0.66,3.413-1.06c0.038,0.001,0.076,0.001,0.111,0.001
			c1.853,0,3.516-0.954,4.474-2.424c3.369-2.521,3.918-5.391,3.918-6.992c0-3.261-2.231-7.172-4.717-10.256l1.082-10.042
			c15.002-1.382,30.313-6.87,45.567-16.346c0.264-0.163,0.509-0.351,0.736-0.56c2.743-2.538,3.728-5.496,2.702-8.113
			c-0.563-1.432-2.163-3.834-6.582-3.834c-0.862,0-1.822,0.083-2.957,0.261c-2.999,0.465-12.123,1.882-22.083,1.882
			c-0.647,0-1.288-0.007-1.922-0.018c10.368-11.067,17.508-25.035,20.938-41.076c0.534,0.444,1.051,0.855,1.554,1.227
			c0.263,0.672,0.621,1.316,1.064,1.907c1.496,2.009,3.791,3.208,6.135,3.208c0.93,0,1.826-0.186,2.65-0.544
			c2.392,0.927,5.132,0.632,7.129-0.859c0.766-0.572,1.386-1.277,1.852-2.071c0.979-0.21,1.896-0.624,2.706-1.228
			c2.629-1.963,3.493-5.412,2.41-8.607C237.439,155.089,234.54,147.166,232.904,142.692z"/>
		<path style="fill:#C5C5C5;" d="M232.326,141.925c-0.25-0.685-0.463-1.257-0.599-1.689c-3.283-10.341-14.4-32.766-27.027-42.387
			c-4.553-14.913-10.994-29.303-18.709-41.799c4.069-6.78,7.06-15.273,7.366-19.568c0.756-10.589-16.136-23.426-30.494-26.509
			c-1.417-0.305-2.84-0.458-4.23-0.458c-6.688,0-11.441,3.45-14.196,6.248c-0.182-0.083-0.365-0.165-0.547-0.248l-0.568-0.254
			c-0.383-0.167-0.766-0.326-1.15-0.483l-0.104-0.041l-0.095-0.04l-0.688-0.277c-0.412-0.162-0.825-0.317-1.245-0.473
			c-0.273-0.101-0.546-0.197-0.796-0.284c-0.425-0.15-0.847-0.295-1.251-0.427c-0.189-0.062-0.382-0.121-0.573-0.18l-0.211-0.064
			c-1.107-0.343-2.132-0.639-3.071-0.862c-0.033-0.008-0.087-0.023-0.119-0.03c-11.727-2.816-23.533-1.608-35.015,3.664
			c-2.756-2.8-7.508-6.248-14.193-6.248c-1.391,0-2.814,0.153-4.231,0.458c-14.359,3.083-31.252,15.92-30.495,26.509
			c0.307,4.293,3.296,12.788,7.367,19.57c-2.516,4.077-4.865,8.392-7.131,12.801c-0.01,0.018-0.018,0.036-0.028,0.056
			c-0.688,1.37-1.387,2.815-2.076,4.289l-0.146,0.311c-0.67,1.442-1.288,2.911-1.963,4.357c-0.012,0.026-0.024,0.054-0.035,0.08
			c-1.275,2.958-2.517,6.022-3.67,9.116l-0.147,0.396c-0.546,1.475-1.074,2.956-1.592,4.466l-0.108,0.324
			c-0.644,1.893-1.25,3.77-1.809,5.6c-12.629,9.619-23.746,32.047-27.029,42.389c-0.137,0.432-0.349,1.004-0.599,1.689
			c-1.638,4.473-4.536,12.396-2.981,19.07c-1.082,3.195-0.218,6.644,2.414,8.61c0.807,0.602,1.724,1.016,2.703,1.225
			c0.466,0.794,1.089,1.501,1.856,2.074c1.989,1.485,4.729,1.783,7.124,0.856c0.823,0.358,1.72,0.542,2.65,0.542
			c2.344,0,4.638-1.197,6.13-3.202c0.445-0.595,0.804-1.238,1.069-1.913c0.5-0.371,1.015-0.778,1.546-1.222
			c4.785,22.575,16.69,40.689,34.797,52.833l2.691,25.009c-2.485,3.083-4.717,6.995-4.717,10.256c0,1.602,0.549,4.473,3.924,6.996
			c0.962,1.472,2.621,2.42,4.469,2.42c0.034,0,0.072-0.001,0.109-0.002c1.054,0.399,2.194,0.754,3.414,1.061
			c0.546,0.225,1.13,0.36,1.727,0.393c1.405,0.285,2.878,0.509,4.4,0.666c0.832,0.531,1.817,0.834,2.863,0.834
			c0.299,0,0.688-0.036,0.982-0.091c0.487-0.091,0.948-0.246,1.374-0.457c0.099,0.002,0.199,0.002,0.3,0.002
			c11.727,0,23.562-3.655,23.562-11.821c0-0.012,0-0.024,0-0.036l2.269-20.072c0.774,0.039,1.549,0.073,2.326,0.099l0.533,0.017
			c2.037,0.055,4.086,0.055,6.156,0l0.506-0.017c0.78-0.025,1.56-0.06,2.336-0.099l2.268,20.072c0,0.012,0,0.024,0,0.036
			c0,8.166,11.833,11.821,23.563,11.821c0.1,0,0.199,0,0.298-0.002c0.426,0.211,0.886,0.366,1.373,0.457
			c0.296,0.055,0.684,0.091,0.985,0.091c1.046,0,2.034-0.304,2.866-0.834c1.521-0.157,2.991-0.381,4.395-0.666
			c0.597-0.032,1.18-0.167,1.728-0.393c1.219-0.307,2.36-0.661,3.412-1.061c0.04,0.001,0.076,0.002,0.112,0.002
			c1.853,0,3.516-0.953,4.475-2.426c3.368-2.521,3.918-5.39,3.918-6.99c0-3.261-2.234-7.173-4.718-10.256l1.082-10.042
			c15.003-1.382,30.311-6.87,45.568-16.347c0.262-0.163,0.509-0.351,0.735-0.561c2.742-2.537,3.727-5.494,2.7-8.112
			c-0.56-1.433-2.162-3.833-6.582-3.833c-0.861,0-1.82,0.084-2.955,0.26c-2.999,0.466-12.123,1.881-22.085,1.881
			c-0.647,0-1.288-0.005-1.921-0.017c10.369-11.067,17.508-25.036,20.939-41.077c0.532,0.445,1.05,0.854,1.552,1.228
			c0.266,0.673,0.623,1.316,1.064,1.91c1.499,2.008,3.791,3.205,6.137,3.205c0.928,0,1.824-0.184,2.65-0.542
			c2.391,0.925,5.132,0.631,7.127-0.86c0.768-0.571,1.387-1.276,1.854-2.07c0.979-0.21,1.895-0.625,2.707-1.229
			c2.628-1.963,3.491-5.411,2.409-8.606C236.859,154.321,233.961,146.398,232.326,141.925z"/>
		<path style="fill:#B7B7B7;" d="M231.746,141.157c-0.25-0.685-0.462-1.258-0.599-1.688c-3.283-10.342-14.4-32.766-27.025-42.388
			c-4.554-14.912-10.994-29.301-18.708-41.798c4.069-6.78,7.059-15.274,7.365-19.568c0.756-10.589-16.136-23.428-30.496-26.51
			c-1.415-0.304-2.84-0.459-4.23-0.459c-6.687,0-11.439,3.45-14.193,6.25c-0.184-0.083-0.366-0.166-0.55-0.248l-0.566-0.256
			c-0.383-0.166-0.768-0.323-1.151-0.481l-0.103-0.044l-0.097-0.04l-0.688-0.276c-0.413-0.163-0.824-0.317-1.247-0.474
			c-0.271-0.101-0.546-0.196-0.794-0.282c-0.425-0.148-0.849-0.297-1.25-0.427c-0.191-0.062-0.383-0.123-0.576-0.182l-0.208-0.063
			c-1.108-0.345-2.138-0.623-3.073-0.862c-0.032-0.008-0.087-0.023-0.119-0.03c-11.728-2.815-23.532-1.608-35.014,3.662
			c-2.756-2.798-7.51-6.248-14.195-6.248c-1.391,0-2.813,0.155-4.23,0.459c-14.358,3.082-31.25,15.921-30.494,26.51
			c0.307,4.293,3.296,12.788,7.368,19.57c-2.519,4.075-5.004,8.322-7.134,12.8c-0.008,0.019-0.018,0.038-0.028,0.057
			c-0.711,1.354-1.386,2.814-2.076,4.289l-0.146,0.309c-0.671,1.441-1.34,2.887-1.963,4.357c-0.012,0.027-0.022,0.053-0.034,0.079
			c-1.276,2.958-2.518,6.023-3.672,9.117l-0.148,0.396c-0.546,1.475-1.074,2.956-1.59,4.466l-0.109,0.322
			c-0.643,1.895-1.249,3.772-1.809,5.601c-12.628,9.62-23.746,32.046-27.029,42.39c-0.138,0.431-0.35,1.004-0.6,1.688
			c-1.635,4.473-4.533,12.396-2.981,19.07c-1.081,3.195-0.218,6.644,2.414,8.608c0.809,0.603,1.726,1.018,2.705,1.226
			c0.466,0.796,1.088,1.501,1.855,2.077c1.989,1.483,4.731,1.78,7.123,0.854c0.824,0.357,1.72,0.543,2.65,0.543
			c2.346,0,4.638-1.199,6.133-3.201c0.443-0.595,0.803-1.241,1.066-1.914c0.5-0.371,1.016-0.778,1.548-1.222
			c4.783,22.575,16.69,40.688,34.795,52.833l2.692,25.008c-2.484,3.082-4.718,6.994-4.718,10.257c0,1.601,0.55,4.473,3.926,6.994
			c0.961,1.473,2.62,2.422,4.467,2.422c0.036,0,0.072-0.002,0.112-0.002c1.051,0.399,2.191,0.754,3.412,1.061
			c0.547,0.226,1.131,0.358,1.728,0.393c1.405,0.286,2.878,0.508,4.399,0.667c0.833,0.53,1.818,0.833,2.862,0.833
			c0.3,0,0.689-0.036,0.983-0.091c0.488-0.093,0.949-0.248,1.373-0.456c0.101,0,0.199,0,0.3,0c11.729,0,23.563-3.655,23.563-11.82
			c0-0.013,0-0.024,0-0.038l2.268-20.072c0.774,0.042,1.552,0.075,2.326,0.101l0.534,0.015c2.039,0.055,4.085,0.055,6.155,0
			l0.508-0.015c0.78-0.025,1.558-0.059,2.334-0.101l2.269,20.072c0,0.014,0,0.025,0,0.038c0,8.165,11.835,11.82,23.562,11.82
			c0.101,0,0.199,0,0.3,0c0.424,0.208,0.885,0.362,1.371,0.454c0.297,0.056,0.687,0.093,0.985,0.093
			c1.048,0,2.035-0.305,2.868-0.834c1.52-0.158,2.992-0.38,4.396-0.666c0.597-0.034,1.181-0.167,1.726-0.393
			c1.221-0.307,2.361-0.661,3.414-1.061c0.038,0,0.076,0.002,0.111,0.002c1.852,0,3.516-0.955,4.474-2.425
			c3.368-2.522,3.918-5.393,3.918-6.991c0-3.263-2.232-7.175-4.718-10.257l1.082-10.041c15.003-1.383,30.313-6.872,45.569-16.348
			c0.263-0.163,0.509-0.35,0.735-0.56c2.749-2.532,3.728-5.496,2.701-8.113c-0.561-1.431-2.161-3.833-6.581-3.833
			c-0.862,0-1.823,0.083-2.958,0.259c-2.999,0.467-12.123,1.884-22.082,1.884c-0.648,0-1.289-0.006-1.922-0.019
			c10.367-11.066,17.508-25.035,20.936-41.076c0.535,0.445,1.052,0.854,1.554,1.227c0.264,0.673,0.622,1.317,1.065,1.908
			c1.496,2.008,3.79,3.207,6.134,3.207c0.931,0,1.826-0.186,2.65-0.543c2.392,0.926,5.133,0.631,7.13-0.859
			c0.765-0.573,1.387-1.278,1.853-2.072c0.979-0.21,1.896-0.623,2.705-1.227c2.63-1.963,3.493-5.411,2.41-8.607
			C236.282,153.553,233.383,145.63,231.746,141.157z"/>
		<path style="fill:#A8A8A8;" d="M231.167,140.388c-0.251-0.684-0.462-1.257-0.598-1.688c-3.284-10.342-14.4-32.767-27.027-42.389
			c-4.554-14.912-10.993-29.301-18.708-41.797c4.069-6.78,7.059-15.275,7.366-19.568c0.756-10.589-16.136-23.428-30.496-26.51
			c-1.416-0.304-2.84-0.458-4.23-0.458c-6.689,0-11.439,3.449-14.194,6.249c-0.184-0.084-0.365-0.166-0.55-0.248l-0.566-0.256
			c-0.383-0.167-0.767-0.324-1.151-0.481l-0.103-0.043l-0.097-0.04l-0.688-0.277c-0.412-0.162-0.824-0.319-1.246-0.474
			c-0.274-0.101-0.546-0.196-0.795-0.282c-0.425-0.148-0.848-0.295-1.25-0.426c-0.19-0.062-0.383-0.123-0.575-0.182l-0.209-0.063
			c-1.107-0.344-2.141-0.609-3.073-0.861c-0.032-0.009-0.086-0.023-0.118-0.03c-11.728-2.816-23.533-1.608-35.016,3.663
			c-2.755-2.8-7.507-6.248-14.194-6.248c-1.39,0-2.813,0.154-4.23,0.458c-14.358,3.082-31.25,15.921-30.494,26.51
			c0.307,4.293,3.297,12.788,7.368,19.57c-2.517,4.075-4.825,8.41-7.132,12.799c-0.011,0.02-0.021,0.038-0.029,0.058
			c-0.686,1.367-1.387,2.813-2.076,4.289l-0.146,0.309c-0.671,1.442-1.299,2.906-1.963,4.358c-0.011,0.025-0.023,0.053-0.035,0.078
			c-1.296,2.951-2.517,6.023-3.67,9.117l-0.148,0.396c-0.546,1.476-1.074,2.957-1.59,4.468l-0.109,0.322
			c-0.644,1.894-1.249,3.771-1.811,5.6c-12.627,9.62-23.746,32.047-27.029,42.391c-0.135,0.431-0.348,1.004-0.598,1.688
			c-1.636,4.474-4.534,12.396-2.98,19.07c-1.082,3.194-0.218,6.645,2.412,8.61c0.81,0.602,1.727,1.016,2.706,1.225
			c0.466,0.796,1.087,1.5,1.855,2.076c1.989,1.484,4.729,1.782,7.123,0.855c0.824,0.358,1.721,0.543,2.65,0.543
			c2.345,0,4.638-1.198,6.132-3.202c0.444-0.595,0.804-1.24,1.067-1.913c0.5-0.372,1.015-0.779,1.547-1.223
			c4.785,22.575,16.691,40.689,34.796,52.833l2.692,25.009c-2.484,3.083-4.719,6.994-4.719,10.256c0,1.602,0.551,4.474,3.926,6.996
			c0.961,1.472,2.621,2.42,4.469,2.42c0.035,0,0.071-0.001,0.11-0.002c1.052,0.4,2.193,0.754,3.413,1.061
			c0.547,0.225,1.13,0.358,1.726,0.392c1.406,0.286,2.878,0.509,4.4,0.667c0.833,0.53,1.817,0.834,2.862,0.834
			c0.3,0,0.689-0.036,0.982-0.091c0.489-0.093,0.949-0.248,1.375-0.457c0.1,0.001,0.198,0.001,0.299,0.001
			c11.729,0,23.563-3.655,23.563-11.821c0-0.013,0-0.024,0-0.036l2.268-20.074c0.775,0.042,1.551,0.076,2.327,0.101l0.533,0.017
			c2.038,0.055,4.084,0.055,6.156,0l0.507-0.017c0.778-0.024,1.558-0.059,2.335-0.101l2.267,20.074c0,0.012,0,0.023,0,0.036
			c0,8.166,11.835,11.821,23.563,11.821c0.099,0,0.198,0,0.298-0.001c0.426,0.209,0.885,0.363,1.373,0.455
			c0.294,0.056,0.685,0.093,0.984,0.093c1.047,0,2.035-0.306,2.868-0.836c1.521-0.156,2.991-0.379,4.395-0.665
			c0.598-0.033,1.181-0.167,1.727-0.392c1.22-0.308,2.361-0.661,3.414-1.061c0.038,0.001,0.075,0.002,0.109,0.002
			c1.854,0,3.518-0.955,4.476-2.425c3.369-2.521,3.918-5.391,3.918-6.991c0-3.262-2.232-7.173-4.717-10.256l1.082-10.042
			c15.002-1.382,30.311-6.87,45.567-16.347c0.262-0.163,0.509-0.351,0.736-0.56c2.742-2.539,3.726-5.496,2.701-8.114
			c-0.561-1.431-2.162-3.833-6.582-3.833c-0.862,0-1.822,0.083-2.956,0.26c-2.999,0.467-12.123,1.883-22.084,1.883
			c-0.647,0-1.288-0.006-1.921-0.018c10.368-11.066,17.507-25.034,20.936-41.075c0.534,0.444,1.051,0.854,1.554,1.227
			c0.264,0.672,0.622,1.316,1.064,1.908c1.497,2.009,3.791,3.207,6.135,3.207c0.93,0,1.826-0.185,2.651-0.543
			c2.391,0.926,5.132,0.63,7.128-0.861c0.766-0.572,1.387-1.275,1.853-2.07c0.977-0.211,1.895-0.624,2.706-1.228
			c2.629-1.963,3.491-5.413,2.409-8.607C235.702,152.784,232.804,144.861,231.167,140.388z"/>
		<path style="fill:#9A9A9A;" d="M230.589,139.619c-0.25-0.684-0.462-1.257-0.599-1.688c-3.283-10.341-14.4-32.766-27.027-42.387
			c-4.553-14.913-10.994-29.303-18.709-41.799c4.069-6.78,7.059-15.273,7.366-19.568c0.756-10.589-16.136-23.426-30.494-26.51
			c-1.417-0.304-2.84-0.458-4.23-0.458c-6.688,0-11.441,3.451-14.196,6.249c-0.182-0.083-0.365-0.165-0.547-0.248l-0.568-0.254
			c-0.383-0.167-0.766-0.326-1.15-0.483l-0.104-0.041c-0.003-0.002-0.091-0.038-0.091-0.038l-0.693-0.28
			c-0.411-0.161-0.824-0.316-1.244-0.472c-0.273-0.101-0.546-0.197-0.796-0.284c-0.425-0.15-0.847-0.295-1.251-0.427
			c-0.189-0.062-0.382-0.121-0.573-0.18l-0.211-0.065c-1.107-0.343-2.134-0.636-3.072-0.862c-0.032-0.008-0.086-0.023-0.119-0.03
			c-11.734-2.778-23.532-1.608-35.014,3.664c-2.756-2.8-7.508-6.249-14.193-6.249c-1.392,0-2.815,0.154-4.232,0.458
			c-14.358,3.084-31.25,15.921-30.494,26.51c0.307,4.293,3.296,12.788,7.367,19.57c-2.516,4.077-4.908,8.37-7.131,12.8
			c-0.01,0.019-0.019,0.038-0.028,0.057c-0.688,1.37-1.387,2.815-2.076,4.289l-0.146,0.311c-0.67,1.442-1.288,2.911-1.962,4.357
			c-0.013,0.026-0.025,0.054-0.036,0.08c-1.275,2.958-2.517,6.022-3.67,9.116l-0.148,0.396c-0.546,1.475-1.074,2.956-1.592,4.466
			l-0.108,0.324c-0.644,1.893-1.25,3.77-1.809,5.6c-12.629,9.619-23.746,32.047-27.029,42.389c-0.137,0.432-0.349,1.004-0.599,1.688
			c-1.638,4.473-4.536,12.396-2.981,19.07c-1.082,3.195-0.218,6.644,2.414,8.61c0.807,0.602,1.724,1.016,2.703,1.226
			c0.466,0.794,1.089,1.501,1.856,2.074c1.989,1.485,4.729,1.782,7.123,0.856c0.824,0.358,1.721,0.542,2.651,0.542
			c2.343,0,4.638-1.197,6.13-3.202c0.445-0.595,0.804-1.238,1.069-1.913c0.5-0.371,1.015-0.778,1.546-1.222
			c4.785,22.575,16.69,40.688,34.797,52.833l2.691,25.009c-2.485,3.083-4.717,6.995-4.717,10.256c0,1.601,0.549,4.473,3.924,6.996
			c0.962,1.473,2.621,2.42,4.469,2.42c0.034,0,0.072,0,0.11-0.002c1.053,0.4,2.193,0.754,3.413,1.061
			c0.546,0.226,1.13,0.36,1.727,0.393c1.405,0.285,2.878,0.509,4.4,0.666c0.832,0.531,1.817,0.834,2.863,0.834
			c0.299,0,0.688-0.036,0.981-0.091c0.488-0.091,0.949-0.246,1.375-0.457c0.099,0.002,0.199,0.002,0.299,0.002
			c11.728,0,23.563-3.656,23.563-11.821c0-0.012,0-0.025,0-0.036l2.269-20.072c0.774,0.039,1.549,0.073,2.326,0.098l0.532,0.018
			c2.038,0.055,4.087,0.055,6.157,0l0.506-0.018c0.78-0.024,1.56-0.059,2.336-0.098l2.267,20.072c0,0.011,0,0.025,0,0.036
			c0,8.165,11.833,11.821,23.563,11.821c0.099,0,0.199,0,0.298-0.002c0.426,0.211,0.886,0.366,1.373,0.457
			c0.296,0.055,0.684,0.091,0.985,0.091c1.046,0,2.033-0.305,2.866-0.834c1.521-0.157,2.991-0.381,4.395-0.666
			c0.597-0.032,1.18-0.167,1.728-0.393c1.219-0.307,2.359-0.661,3.412-1.061c0.04,0.002,0.076,0.002,0.112,0.002
			c1.853,0,3.516-0.953,4.475-2.426c3.368-2.521,3.918-5.39,3.918-6.99c0-3.261-2.234-7.173-4.718-10.256l1.082-10.042
			c15.002-1.382,30.311-6.87,45.567-16.347c0.263-0.163,0.51-0.35,0.735-0.561c2.743-2.537,3.728-5.494,2.701-8.112
			c-0.561-1.433-2.162-3.833-6.582-3.833c-0.861,0-1.82,0.084-2.955,0.26c-3,0.466-12.123,1.881-22.085,1.881
			c-0.647,0-1.288-0.005-1.921-0.017c10.369-11.067,17.508-25.036,20.938-41.077c0.532,0.445,1.05,0.854,1.552,1.227
			c0.266,0.673,0.623,1.316,1.064,1.91c1.499,2.008,3.791,3.205,6.137,3.205c0.928,0,1.824-0.184,2.65-0.542
			c2.391,0.925,5.132,0.631,7.127-0.86c0.768-0.571,1.387-1.277,1.854-2.07c0.979-0.21,1.895-0.625,2.707-1.23
			c2.628-1.963,3.491-5.411,2.409-8.606C235.122,152.015,232.224,144.092,230.589,139.619z"/>
		<path style="fill:#8B8B8B;" d="M230.009,138.851c-0.25-0.684-0.462-1.257-0.599-1.689c-3.283-10.341-14.4-32.765-27.026-42.387
			c-4.554-14.913-10.994-29.302-18.708-41.799c4.069-6.78,7.059-15.275,7.365-19.568c0.756-10.588-16.136-23.427-30.495-26.509
			c-1.416-0.304-2.84-0.459-4.23-0.459c-6.688,0-11.44,3.45-14.194,6.249c-0.184-0.083-0.366-0.165-0.549-0.248l-0.567-0.255
			c-0.383-0.166-0.767-0.324-1.151-0.481l-0.103-0.043c-0.004-0.002-0.092-0.038-0.092-0.038l-0.692-0.279
			c-0.412-0.162-0.824-0.317-1.246-0.473c-0.273-0.101-0.546-0.196-0.795-0.283c-0.424-0.148-0.848-0.296-1.25-0.427
			c-0.19-0.061-0.382-0.122-0.575-0.181l-0.209-0.063c-1.107-0.344-2.138-0.623-3.073-0.862c-0.032-0.008-0.086-0.022-0.118-0.03
			c-11.687-2.978-23.533-1.608-35.015,3.663C93.931,9.89,89.177,6.44,82.491,6.44c-1.391,0-2.815,0.155-4.232,0.459
			C63.901,9.981,47.01,22.82,47.767,33.408c0.306,4.293,3.296,12.788,7.367,19.57c-2.518,4.076-4.955,8.347-7.133,12.8
			c-0.009,0.02-0.019,0.038-0.028,0.057c-0.685,1.369-1.387,2.814-2.076,4.289l-0.146,0.311c-0.671,1.441-1.31,2.901-1.963,4.357
			c-0.013,0.026-0.022,0.053-0.035,0.079c-1.319,2.939-2.517,6.022-3.671,9.116l-0.147,0.396c-0.546,1.475-1.074,2.956-1.591,4.467
			l-0.108,0.322c-0.644,1.894-1.25,3.771-1.81,5.601c-12.628,9.62-23.746,32.046-27.029,42.389
			c-0.137,0.432-0.349,1.005-0.599,1.689c-1.636,4.473-4.534,12.395-2.981,19.07c-1.081,3.195-0.218,6.644,2.414,8.609
			c0.808,0.602,1.725,1.017,2.704,1.226c0.467,0.795,1.089,1.501,1.856,2.076c1.989,1.484,4.73,1.781,7.123,0.855
			c0.824,0.357,1.72,0.543,2.65,0.543c2.345,0,4.638-1.199,6.133-3.202c0.443-0.594,0.802-1.24,1.066-1.914
			c0.5-0.371,1.016-0.778,1.547-1.222c4.784,22.575,16.69,40.688,34.796,52.833l2.692,25.009c-2.485,3.082-4.718,6.994-4.718,10.256
			c0,1.601,0.55,4.473,3.925,6.995c0.961,1.473,2.621,2.421,4.468,2.421c0.035,0,0.072-0.001,0.112-0.001
			c1.052,0.398,2.191,0.753,3.412,1.06c0.547,0.226,1.131,0.359,1.727,0.393c1.406,0.286,2.878,0.509,4.4,0.667
			c0.832,0.53,1.818,0.833,2.862,0.833c0.3,0,0.689-0.035,0.983-0.091c0.488-0.092,0.949-0.247,1.374-0.456
			c0.101,0.001,0.199,0.001,0.3,0.001c11.728,0,23.563-3.656,23.563-11.821c0-0.013,0-0.024,0-0.037l2.268-20.072
			c0.774,0.041,1.551,0.075,2.326,0.1l0.533,0.016c2.039,0.056,4.086,0.056,6.156,0l0.508-0.016c0.779-0.025,1.558-0.059,2.334-0.1
			l2.269,20.072c0,0.013,0,0.024,0,0.037c0,8.165,11.834,11.821,23.562,11.821c0.1,0,0.199,0,0.299-0.001
			c0.425,0.209,0.886,0.363,1.372,0.455c0.296,0.056,0.686,0.092,0.985,0.092c1.048,0,2.035-0.305,2.867-0.834
			c1.52-0.157,2.992-0.38,4.395-0.666c0.597-0.033,1.181-0.167,1.727-0.393c1.22-0.307,2.361-0.661,3.413-1.06
			c0.039,0,0.076,0.001,0.111,0.001c1.852,0,3.517-0.954,4.475-2.425c3.368-2.522,3.918-5.392,3.918-6.991
			c0-3.262-2.231-7.174-4.718-10.256l1.082-10.042c15.003-1.382,30.313-6.871,45.568-16.347c0.263-0.163,0.51-0.35,0.736-0.56
			c2.749-2.532,3.727-5.496,2.701-8.114c-0.561-1.43-2.162-3.832-6.582-3.832c-0.861,0-1.822,0.083-2.957,0.259
			c-2.999,0.467-12.123,1.883-22.083,1.883c-0.648,0-1.288-0.006-1.921-0.018c10.367-11.066,17.507-25.035,20.937-41.076
			c0.534,0.446,1.051,0.854,1.553,1.227c0.265,0.674,0.623,1.317,1.065,1.909c1.497,2.008,3.791,3.207,6.135,3.207
			c0.93,0,1.825-0.186,2.65-0.543c2.392,0.925,5.133,0.631,7.129-0.86c0.766-0.572,1.387-1.277,1.853-2.071
			c0.979-0.21,1.895-0.624,2.706-1.229c2.629-1.963,3.492-5.411,2.41-8.606C234.544,151.246,231.645,143.323,230.009,138.851z"/>
		<path style="fill:#7D7D7D;" d="M229.431,138.082c-0.251-0.684-0.463-1.258-0.599-1.688c-3.284-10.342-14.4-32.767-27.028-42.388
			c-4.553-14.913-10.992-29.302-18.707-41.798c4.069-6.78,7.058-15.275,7.365-19.568c0.756-10.589-16.135-23.429-30.495-26.51
			c-1.416-0.304-2.84-0.458-4.23-0.458c-6.688,0-11.439,3.449-14.194,6.249c-0.184-0.084-0.366-0.167-0.549-0.248l-0.568-0.255
			c-0.382-0.167-0.765-0.325-1.15-0.483l-0.103-0.042c-0.004-0.002-0.092-0.038-0.092-0.038l-0.692-0.28
			c-0.412-0.161-0.824-0.317-1.246-0.473c-0.273-0.101-0.545-0.195-0.795-0.282c-0.425-0.148-0.849-0.296-1.251-0.427
			c-0.189-0.062-0.382-0.121-0.574-0.182l-0.209-0.063c-1.108-0.345-2.141-0.61-3.073-0.861c-0.032-0.009-0.087-0.024-0.119-0.03
			c-11.727-2.816-23.533-1.608-35.015,3.662c-2.755-2.799-7.508-6.247-14.193-6.247c-1.391,0-2.813,0.154-4.231,0.458
			c-14.358,3.081-31.25,15.921-30.494,26.51c0.308,4.293,3.297,12.788,7.368,19.57c-2.517,4.076-4.871,8.389-7.132,12.798
			c-0.011,0.021-0.02,0.039-0.028,0.059c-0.658,1.383-1.388,2.813-2.077,4.289l-0.146,0.31c-0.672,1.44-1.331,2.891-1.964,4.356
			c-0.011,0.026-0.022,0.053-0.034,0.079c-1.274,2.96-2.518,6.023-3.67,9.117l-0.148,0.396c-0.545,1.476-1.075,2.958-1.59,4.468
			l-0.11,0.321c-0.643,1.895-1.248,3.772-1.81,5.601c-12.627,9.62-23.746,32.046-27.029,42.391c-0.135,0.43-0.349,1.004-0.599,1.688
			c-1.635,4.473-4.533,12.396-2.979,19.07c-1.081,3.194-0.218,6.644,2.414,8.609c0.809,0.602,1.726,1.017,2.705,1.227
			c0.465,0.795,1.088,1.5,1.855,2.074c1.989,1.485,4.73,1.782,7.122,0.855c0.824,0.359,1.721,0.544,2.651,0.544
			c2.345,0,4.638-1.199,6.132-3.202c0.444-0.595,0.804-1.24,1.067-1.913c0.5-0.372,1.016-0.78,1.547-1.224
			c4.785,22.575,16.69,40.691,34.795,52.834l2.693,25.009c-2.485,3.083-4.718,6.995-4.718,10.256c0,1.602,0.55,4.473,3.925,6.995
			c0.961,1.473,2.621,2.421,4.468,2.421c0.035,0,0.071-0.001,0.111-0.002c1.053,0.399,2.193,0.753,3.413,1.061
			c0.547,0.226,1.13,0.359,1.727,0.393c1.405,0.286,2.878,0.509,4.4,0.667c0.833,0.529,1.817,0.834,2.861,0.834
			c0.301,0,0.69-0.036,0.983-0.091c0.489-0.093,0.949-0.249,1.375-0.457c0.1,0,0.198,0,0.298,0c11.729,0,23.563-3.654,23.563-11.82
			c0-0.013,0-0.024,0-0.037l2.268-20.072c0.775,0.041,1.551,0.074,2.326,0.1l0.534,0.017c2.037,0.054,4.085,0.054,6.155,0
			l0.508-0.017c0.778-0.025,1.558-0.059,2.335-0.1l2.267,20.072c0,0.013,0,0.024,0,0.037c0,8.166,11.835,11.82,23.563,11.82
			c0.099,0,0.198,0,0.298,0c0.426,0.208,0.886,0.364,1.372,0.456c0.295,0.056,0.686,0.092,0.986,0.092
			c1.046,0,2.033-0.306,2.867-0.836c1.52-0.156,2.99-0.379,4.395-0.665c0.596-0.033,1.179-0.167,1.727-0.393
			c1.219-0.308,2.359-0.661,3.412-1.061c0.04,0.001,0.076,0.002,0.11,0.002c1.854,0,3.517-0.954,4.476-2.425
			c3.369-2.521,3.917-5.391,3.917-6.991c0-3.261-2.232-7.173-4.716-10.256l1.081-10.042c15.002-1.383,30.313-6.87,45.568-16.347
			c0.262-0.163,0.508-0.351,0.735-0.56c2.743-2.539,3.727-5.495,2.702-8.114c-0.561-1.431-2.162-3.832-6.583-3.832
			c-0.861,0-1.82,0.083-2.955,0.259c-3,0.467-12.123,1.883-22.084,1.883c-0.647,0-1.288-0.006-1.921-0.019
			c10.367-11.066,17.507-25.034,20.938-41.075c0.533,0.445,1.051,0.855,1.553,1.228c0.264,0.672,0.621,1.316,1.064,1.908
			c1.497,2.008,3.791,3.207,6.136,3.207c0.929,0,1.825-0.185,2.65-0.544c2.391,0.927,5.132,0.631,7.128-0.86
			c0.767-0.572,1.386-1.276,1.852-2.069c0.977-0.212,1.895-0.624,2.707-1.229c2.628-1.964,3.49-5.413,2.409-8.607
			C233.965,150.479,231.066,142.555,229.431,138.082z"/>
		<path style="fill:#6E6E6E;" d="M228.85,137.314c-0.25-0.684-0.462-1.257-0.598-1.689c-3.283-10.341-14.4-32.765-27.027-42.388
			c-4.554-14.912-10.994-29.302-18.708-41.798c4.068-6.78,7.059-15.274,7.365-19.568c0.756-10.588-16.136-23.426-30.495-26.509
			c-1.416-0.304-2.84-0.458-4.23-0.458c-6.688,0-11.44,3.449-14.194,6.249c-0.184-0.083-0.366-0.166-0.549-0.248l-0.567-0.256
			c-0.382-0.167-0.767-0.325-1.151-0.482l-0.104-0.042c-0.002-0.001-0.092-0.038-0.092-0.038l-0.692-0.279
			c-0.412-0.162-0.823-0.317-1.245-0.473c-0.273-0.1-0.546-0.197-0.795-0.283c-0.425-0.149-0.847-0.295-1.251-0.427
			c-0.189-0.061-0.382-0.122-0.574-0.18l-0.209-0.064c-1.107-0.344-2.143-0.607-3.073-0.862c-0.031-0.009-0.086-0.022-0.118-0.031
			c-11.688-2.978-23.533-1.607-35.016,3.664c-2.754-2.799-7.507-6.248-14.193-6.248c-1.39,0-2.814,0.154-4.231,0.458
			c-14.358,3.083-31.25,15.921-30.494,26.509c0.308,4.293,3.297,12.788,7.367,19.57c-2.517,4.076-4.908,8.369-7.132,12.8
			c-0.01,0.019-0.019,0.038-0.028,0.057c-0.687,1.369-1.387,2.814-2.076,4.29l-0.146,0.309c-0.669,1.443-1.275,2.916-1.961,4.358
			c-0.013,0.025-0.025,0.054-0.036,0.079c-1.295,2.95-2.517,6.022-3.671,9.116l-0.146,0.396c-0.547,1.476-1.074,2.957-1.592,4.467
			l-0.108,0.323c-0.644,1.893-1.249,3.771-1.81,5.599c-12.628,9.62-23.746,32.048-27.029,42.39
			c-0.137,0.432-0.348,1.005-0.598,1.689c-1.637,4.473-4.536,12.395-2.981,19.07c-1.082,3.194-0.218,6.643,2.413,8.61
			c0.809,0.603,1.726,1.016,2.705,1.225c0.465,0.796,1.088,1.501,1.854,2.075c1.99,1.484,4.73,1.783,7.125,0.857
			c0.823,0.357,1.72,0.543,2.649,0.543c2.344,0,4.638-1.198,6.131-3.203c0.444-0.595,0.804-1.239,1.069-1.912
			c0.5-0.372,1.015-0.779,1.546-1.223c4.784,22.575,16.69,40.688,34.797,52.833l2.69,25.009c-2.484,3.083-4.717,6.994-4.717,10.256
			c0,1.601,0.549,4.473,3.925,6.996c0.961,1.472,2.621,2.42,4.469,2.42c0.034,0,0.072,0,0.11-0.001
			c1.052,0.398,2.193,0.753,3.412,1.06c0.547,0.226,1.131,0.359,1.729,0.393c1.404,0.286,2.878,0.508,4.398,0.666
			c0.834,0.531,1.818,0.834,2.864,0.834c0.298,0,0.688-0.036,0.981-0.091c0.489-0.092,0.949-0.246,1.375-0.456
			c0.099,0.001,0.198,0.001,0.3,0.001c11.727,0,23.562-3.656,23.562-11.821c0-0.013,0-0.024,0-0.036l2.268-20.073
			c0.775,0.04,1.55,0.074,2.327,0.099l0.532,0.017c2.038,0.056,4.086,0.056,6.157,0l0.506-0.017
			c0.779-0.024,1.559-0.059,2.335-0.099l2.268,20.073c0,0.012,0,0.023,0,0.036c0,8.165,11.835,11.821,23.563,11.821
			c0.1,0,0.199,0,0.299-0.001c0.426,0.21,0.886,0.363,1.373,0.455c0.295,0.056,0.684,0.092,0.984,0.092
			c1.048,0,2.035-0.305,2.867-0.835c1.521-0.157,2.991-0.379,4.396-0.665c0.597-0.033,1.18-0.167,1.727-0.393
			c1.22-0.307,2.361-0.661,3.413-1.06c0.039,0.001,0.077,0.001,0.111,0.001c1.853,0,3.517-0.954,4.476-2.426
			c3.367-2.521,3.918-5.39,3.918-6.99c0-3.262-2.234-7.173-4.719-10.256l1.083-10.042c15.003-1.382,30.312-6.871,45.567-16.348
			c0.262-0.162,0.51-0.35,0.736-0.559c2.743-2.539,3.726-5.496,2.701-8.114c-0.561-1.431-2.163-3.833-6.583-3.833
			c-0.861,0-1.821,0.084-2.956,0.26c-2.998,0.466-12.123,1.883-22.084,1.883c-0.646,0-1.288-0.006-1.92-0.019
			c10.368-11.066,17.508-25.035,20.937-41.076c0.533,0.446,1.052,0.855,1.553,1.229c0.265,0.672,0.623,1.315,1.064,1.908
			c1.498,2.009,3.791,3.207,6.136,3.207c0.93,0,1.825-0.186,2.65-0.543c2.392,0.925,5.132,0.63,7.128-0.86
			c0.767-0.572,1.387-1.276,1.854-2.071c0.979-0.21,1.896-0.624,2.706-1.229c2.629-1.963,3.491-5.412,2.41-8.606
			C233.385,149.709,230.486,141.786,228.85,137.314z"/>
		<path style="fill:#606060;" d="M228.271,136.545c-0.25-0.684-0.462-1.257-0.599-1.689c-3.283-10.341-14.4-32.766-27.026-42.387
			c-4.554-14.913-10.994-29.302-18.708-41.799c4.069-6.78,7.059-15.274,7.365-19.568c0.756-10.588-16.136-23.427-30.495-26.509
			c-1.416-0.305-2.84-0.459-4.23-0.459c-6.688,0-11.44,3.45-14.194,6.249c-0.184-0.083-0.366-0.165-0.549-0.248l-0.567-0.255
			c-0.383-0.166-0.767-0.324-1.151-0.482l-0.103-0.043c-0.004-0.002-0.092-0.038-0.096-0.04l-0.688-0.277
			c-0.412-0.162-0.824-0.317-1.246-0.473c-0.272-0.101-0.546-0.197-0.795-0.283c-0.424-0.149-0.848-0.297-1.25-0.427
			c-0.19-0.063-0.383-0.122-0.575-0.181l-0.209-0.063c-1.107-0.344-2.136-0.631-3.073-0.862c-0.032-0.008-0.086-0.023-0.118-0.03
			c-11.714-2.87-23.533-1.608-35.015,3.663c-2.756-2.799-7.509-6.248-14.194-6.248c-1.391,0-2.814,0.154-4.231,0.459
			c-14.358,3.082-31.25,15.921-30.494,26.509c0.307,4.293,3.297,12.788,7.368,19.57c-2.518,4.076-4.909,8.369-7.133,12.8
			c-0.009,0.019-0.019,0.038-0.028,0.057c-0.686,1.369-1.387,2.814-2.076,4.289l-0.146,0.311c-0.671,1.441-1.327,2.893-1.963,4.357
			c-0.013,0.026-0.023,0.053-0.035,0.079c-1.281,2.955-2.517,6.022-3.671,9.116l-0.147,0.396c-0.546,1.475-1.074,2.956-1.591,4.466
			l-0.108,0.323c-0.644,1.893-1.25,3.771-1.81,5.601c-12.628,9.619-23.746,32.046-27.029,42.389
			c-0.137,0.432-0.349,1.005-0.599,1.689c-1.636,4.473-4.534,12.395-2.981,19.07c-1.081,3.195-0.218,6.644,2.414,8.609
			c0.808,0.603,1.725,1.017,2.704,1.226c0.467,0.795,1.089,1.501,1.856,2.076c1.989,1.484,4.729,1.781,7.123,0.855
			c0.824,0.357,1.72,0.542,2.65,0.542c2.345,0,4.638-1.198,6.132-3.201c0.444-0.595,0.803-1.24,1.067-1.914
			c0.5-0.371,1.016-0.778,1.547-1.222c4.784,22.575,16.69,40.689,34.796,52.833l2.692,25.009c-2.485,3.082-4.718,6.994-4.718,10.256
			c0,1.6,0.55,4.473,3.925,6.996c0.961,1.472,2.621,2.42,4.468,2.42c0.035,0,0.072-0.001,0.111-0.002
			c1.053,0.399,2.192,0.754,3.413,1.061c0.546,0.226,1.13,0.359,1.726,0.392c1.406,0.286,2.878,0.509,4.4,0.667
			c0.832,0.53,1.817,0.833,2.862,0.833c0.3,0,0.688-0.035,0.982-0.091c0.488-0.092,0.949-0.247,1.374-0.456
			c0.1,0.001,0.199,0.001,0.3,0.001c11.728,0,23.563-3.656,23.563-11.821c0-0.013,0-0.025,0-0.037l2.268-20.072
			c0.774,0.041,1.551,0.075,2.326,0.1l0.533,0.016c2.039,0.056,4.086,0.056,6.156,0l0.507-0.016c0.78-0.024,1.559-0.059,2.335-0.1
			l2.268,20.072c0,0.013,0,0.024,0,0.037c0,8.165,11.834,11.821,23.562,11.821c0.1,0,0.199,0,0.299-0.001
			c0.425,0.209,0.886,0.364,1.372,0.455c0.296,0.057,0.686,0.092,0.985,0.092c1.047,0,2.035-0.305,2.867-0.834
			c1.521-0.157,2.992-0.38,4.396-0.666c0.597-0.033,1.181-0.167,1.727-0.392c1.219-0.307,2.36-0.661,3.412-1.061
			c0.039,0.001,0.076,0.002,0.111,0.002c1.853,0,3.517-0.954,4.475-2.425c3.369-2.522,3.918-5.392,3.918-6.991
			c0-3.262-2.232-7.174-4.717-10.256l1.081-10.042c15.003-1.382,30.311-6.871,45.568-16.347c0.263-0.163,0.509-0.351,0.736-0.56
			c2.742-2.537,3.727-5.495,2.7-8.113c-0.561-1.431-2.161-3.832-6.581-3.832c-0.862,0-1.822,0.083-2.957,0.259
			c-2.999,0.467-12.123,1.883-22.083,1.883c-0.648,0-1.288-0.006-1.921-0.019c10.367-11.066,17.507-25.035,20.936-41.076
			c0.534,0.445,1.051,0.855,1.553,1.228c0.265,0.673,0.623,1.317,1.065,1.909c1.497,2.008,3.791,3.206,6.135,3.206
			c0.93,0,1.825-0.185,2.65-0.542c2.392,0.925,5.133,0.631,7.129-0.86c0.766-0.572,1.387-1.277,1.852-2.071
			c0.979-0.21,1.896-0.624,2.706-1.229c2.629-1.963,3.492-5.411,2.41-8.606C232.807,148.94,229.907,141.018,228.271,136.545z"/>
	</g>
	<path style="fill:#FFFFFF;" d="M228.271,136.545c-0.25-0.684-0.462-1.257-0.599-1.689c-3.283-10.341-14.4-32.766-27.026-42.387
		c-4.554-14.913-10.994-29.302-18.708-41.799c4.069-6.78,7.059-15.274,7.365-19.568c0.756-10.588-16.136-23.427-30.495-26.509
		c-1.416-0.305-2.84-0.459-4.23-0.459c-6.688,0-11.44,3.45-14.194,6.249c-0.184-0.083-0.366-0.165-0.549-0.248l-0.567-0.255
		c-0.383-0.166-0.767-0.324-1.151-0.482l-0.103-0.043c-0.004-0.002-0.092-0.038-0.096-0.04l-0.688-0.277
		c-0.412-0.162-0.824-0.317-1.246-0.473c-0.272-0.101-0.546-0.197-0.795-0.283c-0.424-0.149-0.848-0.297-1.25-0.427
		c-0.19-0.063-0.383-0.122-0.575-0.181l-0.209-0.063c-1.107-0.344-2.136-0.631-3.073-0.862c-0.032-0.008-0.086-0.023-0.118-0.03
		c-11.714-2.87-23.533-1.608-35.015,3.663c-2.756-2.799-7.509-6.248-14.194-6.248c-1.391,0-2.814,0.154-4.231,0.459
		c-14.358,3.082-31.25,15.921-30.494,26.509c0.307,4.293,3.297,12.788,7.368,19.57c-2.518,4.076-4.909,8.369-7.133,12.8
		c-0.009,0.019-0.019,0.038-0.028,0.057c-0.686,1.369-1.387,2.814-2.076,4.289l-0.146,0.311c-0.671,1.441-1.327,2.893-1.963,4.357
		c-0.013,0.026-0.023,0.053-0.035,0.079c-1.281,2.955-2.517,6.022-3.671,9.116l-0.147,0.396c-0.546,1.475-1.074,2.956-1.591,4.466
		l-0.108,0.323c-0.644,1.893-1.25,3.771-1.81,5.601c-12.628,9.619-23.746,32.046-27.029,42.389
		c-0.137,0.432-0.349,1.005-0.599,1.689c-1.636,4.473-4.534,12.395-2.981,19.07c-1.081,3.195-0.218,6.644,2.414,8.609
		c0.808,0.603,1.725,1.017,2.704,1.226c0.467,0.795,1.089,1.501,1.856,2.076c1.989,1.484,4.729,1.781,7.123,0.855
		c0.824,0.357,1.72,0.542,2.65,0.542c2.345,0,4.638-1.198,6.132-3.201c0.444-0.595,0.803-1.24,1.067-1.914
		c0.5-0.371,1.016-0.778,1.547-1.222c4.784,22.575,16.69,40.689,34.796,52.833l2.692,25.009c-2.485,3.082-4.718,6.994-4.718,10.256
		c0,1.6,0.55,4.473,3.925,6.996c0.961,1.472,2.621,2.42,4.468,2.42c0.035,0,0.072-0.001,0.111-0.002
		c1.053,0.399,2.192,0.754,3.413,1.061c0.546,0.226,1.13,0.359,1.726,0.392c1.406,0.286,2.878,0.509,4.4,0.667
		c0.832,0.53,1.817,0.833,2.862,0.833c0.3,0,0.688-0.035,0.982-0.091c0.488-0.092,0.949-0.247,1.374-0.456
		c0.1,0.001,0.199,0.001,0.3,0.001c11.728,0,23.563-3.656,23.563-11.821c0-0.013,0-0.025,0-0.037l2.268-20.072
		c0.774,0.041,1.551,0.075,2.326,0.1l0.533,0.016c2.039,0.056,4.086,0.056,6.156,0l0.507-0.016c0.78-0.024,1.559-0.059,2.335-0.1
		l2.268,20.072c0,0.013,0,0.024,0,0.037c0,8.165,11.834,11.821,23.562,11.821c0.1,0,0.199,0,0.299-0.001
		c0.425,0.209,0.886,0.364,1.372,0.455c0.296,0.057,0.686,0.092,0.985,0.092c1.047,0,2.035-0.305,2.867-0.834
		c1.521-0.157,2.992-0.38,4.396-0.666c0.597-0.033,1.181-0.167,1.727-0.392c1.219-0.307,2.36-0.661,3.412-1.061
		c0.039,0.001,0.076,0.002,0.111,0.002c1.853,0,3.517-0.954,4.475-2.425c3.369-2.522,3.918-5.392,3.918-6.991
		c0-3.262-2.232-7.174-4.717-10.256l1.081-10.042c15.003-1.382,30.311-6.871,45.568-16.347c0.263-0.163,0.509-0.351,0.736-0.56
		c2.742-2.537,3.727-5.495,2.7-8.113c-0.561-1.431-2.161-3.832-6.581-3.832c-0.862,0-1.822,0.083-2.957,0.259
		c-2.999,0.467-12.123,1.883-22.083,1.883c-0.648,0-1.288-0.006-1.921-0.019c10.367-11.066,17.507-25.035,20.936-41.076
		c0.534,0.445,1.051,0.855,1.553,1.228c0.265,0.673,0.623,1.317,1.065,1.909c1.497,2.008,3.791,3.206,6.135,3.206
		c0.93,0,1.825-0.185,2.65-0.542c2.392,0.925,5.133,0.631,7.129-0.86c0.766-0.572,1.387-1.277,1.852-2.071
		c0.979-0.21,1.896-0.624,2.706-1.229c2.629-1.963,3.492-5.411,2.41-8.606C232.807,148.94,229.907,141.018,228.271,136.545z"/>
	<g>
		<path style="fill:#AA471E;" d="M116.978,210.178c0,0,37.778,35.52,95.384-0.258c0,0,4.892-4.527-2.777-3.337
			c-7.669,1.19-50.804,7.92-58.712-13.362L116.978,210.178z"/>
		<g>
			<g>
				<g>
					<g>
						<g>
							<path style="fill:#AA471E;" d="M212.257,162.819c0.895,1.199,2.372,1.611,3.299,0.921c0.927-0.691,0.951-2.227,0.057-3.424
								c-0.896-1.201-2.372-1.613-3.298-0.921C211.388,160.087,211.363,161.622,212.257,162.819z"/>
							<path style="fill:#AA471E;" d="M221.709,159.156c1.146,1.539,3.043,2.065,4.231,1.18c1.189-0.888,1.22-2.854,0.072-4.392
								c-1.148-1.539-3.043-2.067-4.23-1.181C220.593,155.65,220.561,157.618,221.709,159.156z"/>
							<path style="fill:#AA471E;" d="M217.083,162.44c1.167,1.562,3.09,2.097,4.295,1.198c1.204-0.902,1.236-2.896,0.073-4.457
								c-1.165-1.561-3.088-2.096-4.295-1.196C215.953,158.885,215.919,160.881,217.083,162.44z"/>
						</g>
						<g>
							<g>
								<g>
									<path style="fill:#D36829;" d="M189.637,92.638c13.987,1.573,29.617,31.726,33.414,43.687
										c1.199,3.777,7.443,17.42,0.767,22.625c-2.768,2.157-6.146,3.682-9.56,3.076c-5.448-0.965-16.369-14.703-18.803-17.787
										c-4.811-6.091-9.361-12.414-13.789-18.787c-1.726-2.483-3.451-4.964-5.136-7.476
										C166.656,103.234,179.821,91.533,189.637,92.638z"/>
								</g>
							</g>
							<path style="fill:#AA471E;" d="M209.32,157.712c0.755,2.337,3.892,3.419,7.007,2.414c3.114-1.006,5.027-3.718,4.271-6.055
								c-0.754-2.34-3.892-3.422-7.008-2.417C210.477,152.66,208.564,155.373,209.32,157.712z"/>
						</g>
					</g>
				</g>
				<g>
					<g>
						<g>
							<path style="fill:#AA471E;" d="M23.075,162.819c-0.895,1.199-2.372,1.611-3.299,0.921c-0.926-0.691-0.951-2.227-0.057-3.424
								c0.896-1.201,2.372-1.613,3.299-0.921C23.944,160.087,23.97,161.622,23.075,162.819z"/>
							<path style="fill:#AA471E;" d="M13.623,159.156c-1.147,1.539-3.042,2.065-4.231,1.18c-1.189-0.888-1.22-2.854-0.072-4.392
								c1.148-1.539,3.043-2.067,4.23-1.181C14.739,155.65,14.771,157.618,13.623,159.156z"/>
							<path style="fill:#AA471E;" d="M18.25,162.44c-1.167,1.562-3.09,2.097-4.295,1.198c-1.205-0.902-1.237-2.896-0.074-4.457
								c1.165-1.561,3.088-2.096,4.295-1.196C19.379,158.885,19.413,160.881,18.25,162.44z"/>
						</g>
						<g>
							<g>
								<g>
									<path style="fill:#D36829;" d="M45.695,92.638c-13.987,1.573-29.617,31.726-33.413,43.687
										c-1.199,3.777-7.444,17.42-0.768,22.625c2.768,2.157,6.146,3.682,9.56,3.076c5.449-0.965,16.369-14.703,18.804-17.787
										c4.81-6.091,9.36-12.414,13.788-18.787c1.726-2.483,3.452-4.964,5.136-7.476C68.677,103.234,55.512,91.533,45.695,92.638z"
										/>
								</g>
							</g>
							<path style="fill:#AA471E;" d="M26.012,157.712c-0.754,2.337-3.892,3.419-7.006,2.414c-3.115-1.006-5.028-3.718-4.273-6.055
								c0.754-2.34,3.892-3.422,7.008-2.417C24.855,152.66,26.767,155.373,26.012,157.712z"/>
						</g>
					</g>
				</g>
			</g>
			<g>
				<g>
					<g>
						<path style="fill:#D36829;" d="M122.911,181.314h46.844l-6.532,60.689c3.053,3.282,4.915,6.867,4.915,8.682
							c0,3.85-8.378,6.971-18.713,6.971c-10.334,0-18.712-3.12-18.712-6.971c0-0.061,0.01-0.13,0.014-0.194L122.911,181.314z"/>
						<path style="fill:#A1341D;" d="M146.337,220.637c0.855,8.872,9.051,13.703,17.564,15.057l4.277-39.744
							c-4.709,1.886-9.191,4.568-12.964,7.863C150.45,207.975,145.688,213.885,146.337,220.637z"/>
						<path style="fill:#AA471E;" d="M164.595,255.25c0.228,0,0.432-0.16,0.476-0.395c0.72-3.831-2.501-6.995-2.64-7.126
							c-0.192-0.186-0.498-0.183-0.686,0.01c-0.186,0.192-0.18,0.5,0.012,0.687c0.03,0.028,2.981,2.939,2.36,6.251
							c-0.049,0.263,0.123,0.516,0.387,0.566C164.534,255.248,164.564,255.25,164.595,255.25z"/>
						<path style="fill:#AA471E;" d="M159.048,256.71c0.227,0,0.432-0.162,0.476-0.396c0.72-3.831-2.501-6.995-2.64-7.127
							c-0.193-0.186-0.498-0.182-0.686,0.011c-0.186,0.192-0.18,0.499,0.011,0.686c0.031,0.029,2.983,2.94,2.361,6.25
							c-0.05,0.265,0.123,0.518,0.386,0.567C158.987,256.706,159.018,256.71,159.048,256.71z"/>
						<path style="fill:#AA471E;" d="M152.081,258.202c0.228,0,0.433-0.162,0.476-0.395c0.641-3.409-2.222-6.223-2.346-6.341
							c-0.192-0.185-0.498-0.182-0.686,0.011c-0.186,0.193-0.18,0.5,0.012,0.687c0.026,0.024,2.61,2.574,2.066,5.464
							c-0.049,0.264,0.123,0.518,0.387,0.566C152.02,258.199,152.051,258.202,152.081,258.202z"/>
					</g>
				</g>
				<g>
					<g>
						<path style="fill:#D36829;" d="M112.421,181.314H65.577l6.532,60.689c-3.052,3.282-4.914,6.867-4.914,8.682
							c0,3.85,8.377,6.971,18.712,6.971c10.335,0,18.712-3.12,18.712-6.971c0-0.061-0.009-0.13-0.013-0.194L112.421,181.314z"/>
						<path style="fill:#A1341D;" d="M78.563,240.6c8.33-1.752,14.377-7.667,18.128-15.109c6.858-13.612,6.645-29.288,5.117-44.177
							h-36.23l6.434,59.77C74.199,241.181,76.387,241.058,78.563,240.6z"/>
						<path style="fill:#AA471E;" d="M70.737,255.25c-0.227,0-0.432-0.16-0.476-0.395c-0.72-3.831,2.501-6.995,2.64-7.126
							c0.193-0.186,0.498-0.183,0.686,0.01c0.186,0.192,0.18,0.5-0.012,0.687c-0.03,0.028-2.981,2.939-2.36,6.251
							c0.05,0.263-0.123,0.516-0.387,0.566C70.798,255.248,70.768,255.25,70.737,255.25z"/>
						<path style="fill:#AA471E;" d="M76.285,256.71c-0.228,0-0.433-0.162-0.476-0.396c-0.72-3.831,2.501-6.995,2.639-7.127
							c0.193-0.186,0.498-0.182,0.686,0.011c0.187,0.192,0.181,0.499-0.011,0.686c-0.03,0.029-2.982,2.94-2.36,6.25
							c0.049,0.265-0.124,0.518-0.387,0.567C76.346,256.706,76.315,256.71,76.285,256.71z"/>
						<path style="fill:#AA471E;" d="M83.251,258.202c-0.228,0-0.432-0.162-0.476-0.395c-0.641-3.409,2.223-6.223,2.346-6.341
							c0.193-0.185,0.498-0.182,0.686,0.011c0.186,0.193,0.18,0.5-0.012,0.687c-0.026,0.024-2.61,2.574-2.066,5.464
							c0.049,0.264-0.123,0.518-0.387,0.566C83.312,258.199,83.281,258.202,83.251,258.202z"/>
					</g>
				</g>
			</g>
			<g>
				<g>
					<path style="fill:#DC722F;" d="M203.27,139.311c0,55.595-38.326,86.577-85.603,86.577c-47.278,0-85.603-30.982-85.603-86.577
						c0-55.594,38.324-129.247,85.603-129.247C164.943,10.064,203.27,83.717,203.27,139.311z"/>
					<path style="fill:#A1341D;" d="M142.872,51.589c10.64,6.288,23.081,5.106,34.229,0.491
						c-12.879-20.449-29.642-36.081-48.292-40.649C124.135,25.768,129.811,43.872,142.872,51.589z"/>
					<path style="fill:#A1341D;" d="M187.276,133.684c-1.795,10.738,4.611,21.599,13.915,27.025
						c1.356-6.663,2.078-13.799,2.078-21.398c0-7.024-0.612-14.338-1.777-21.754C194.76,121.058,188.68,125.296,187.276,133.684z"/>
					<path style="fill:#A1341D;" d="M36.361,152.181c10.859-5.117,21.039-12.377,27.015-23.005
						c6.818-12.124,10.09-27.109,4.929-40.448c-3.576-9.251-10.009-16.958-17.706-23.08c-11.602,23.12-18.534,50.022-18.534,73.663
						c0,4.984,0.313,9.77,0.907,14.354C34.134,153.193,35.267,152.696,36.361,152.181z"/>
					<path style="fill:#EEAA71;" d="M179.639,179c0,30.108-27.747,46.888-61.972,46.888c-34.227,0-61.972-16.779-61.972-46.888
						s27.745-69.997,61.972-69.997C151.892,109.003,179.639,148.892,179.639,179z"/>
				</g>
			</g>
			<g>
				<g>
					<path style="fill:#1D1D1B;" d="M101.997,37.708c0,3.438-2.786,6.226-6.224,6.226c-3.438,0-6.225-2.787-6.225-6.226
						c0-3.437,2.786-6.224,6.225-6.224C99.211,31.484,101.997,34.271,101.997,37.708z"/>
					<path style="fill:#FFFFFF;" d="M95.331,35.768c0,1.073-0.87,1.94-1.94,1.94c-1.072,0-1.94-0.867-1.94-1.94
						c0-1.07,0.868-1.94,1.94-1.94C94.461,33.828,95.331,34.697,95.331,35.768z"/>
					<path style="fill:#FFFFFF;" d="M93.148,39.851c0,0.468-0.381,0.849-0.849,0.849c-0.471,0-0.85-0.381-0.85-0.849
						s0.379-0.849,0.85-0.849C92.768,39.002,93.148,39.383,93.148,39.851z"/>
				</g>
				<g>
					<path style="fill:#1D1D1B;" d="M145.784,37.708c0,3.438-2.787,6.226-6.224,6.226c-3.439,0-6.226-2.787-6.226-6.226
						c0-3.437,2.787-6.224,6.226-6.224C142.997,31.484,145.784,34.271,145.784,37.708z"/>
					<path style="fill:#FFFFFF;" d="M139.117,35.768c0,1.073-0.87,1.94-1.94,1.94c-1.072,0-1.939-0.867-1.939-1.94
						c0-1.07,0.867-1.94,1.939-1.94C138.247,33.828,139.117,34.697,139.117,35.768z"/>
					<path style="fill:#FFFFFF;" d="M136.934,39.851c0,0.468-0.381,0.849-0.849,0.849c-0.47,0-0.849-0.381-0.849-0.849
						s0.379-0.849,0.849-0.849C136.554,39.002,136.934,39.383,136.934,39.851z"/>
				</g>
			</g>
			<g>
				<g>
					<path style="fill:#AA471E;" d="M140.619,67.672c0,15.08-10.275,17.367-22.952,17.367c-12.676,0-22.954-2.287-22.954-17.367
						c0-15.082,10.278-34.98,22.954-34.98C130.344,32.691,140.619,52.59,140.619,67.672z"/>
				</g>
				<g>
					<path style="fill:#8D2E15;" d="M108.896,84.259c-4.473,0-8.317-4.287-9.142-10.194c-0.034-0.241,0.135-0.467,0.377-0.499
						c0.235-0.034,0.467,0.133,0.501,0.377c0.762,5.464,4.237,9.432,8.264,9.432c4.027,0,7.504-3.968,8.266-9.432
						c0.036-0.242,0.262-0.405,0.5-0.377c0.243,0.032,0.409,0.258,0.377,0.499C117.216,79.972,113.37,84.259,108.896,84.259z"/>
					<path style="fill:#8D2E15;" d="M126.438,84.259c-4.477,0-8.32-4.287-9.143-10.194c-0.034-0.241,0.135-0.467,0.377-0.499
						c0.238-0.034,0.466,0.133,0.5,0.377c0.762,5.464,4.238,9.432,8.266,9.432c4.026,0,7.503-3.968,8.265-9.432
						c0.034-0.242,0.265-0.405,0.5-0.377c0.24,0.032,0.411,0.258,0.377,0.499C134.756,79.972,130.912,84.259,126.438,84.259z"/>
				</g>
				<g>
					<path style="fill:#562306;" d="M130.584,69.784c0-2.741-5.786-3.158-12.919-3.158c-7.131,0-12.915,0.417-12.915,3.158
						c0,2.741,5.784,6.36,12.915,6.36C124.798,76.145,130.584,72.525,130.584,69.784z"/>
				</g>
			</g>
			<g>
				<g>
					<path style="fill:#AA471E;" d="M83.605,16.789c-2.91,2.102-4.53,7.202-5.095,10.427l10.509-7.923
						C87.531,17.501,85.341,15.534,83.605,16.789z"/>
					<path style="fill:#D36829;" d="M83.605,16.789c1.735-1.255,3.926,0.712,5.414,2.504l4.599-2.9c0,0-5.608-9.304-16.077-7.057
						c-13.564,2.911-27.16,14.631-26.675,21.421c0.484,6.79,10.674,30.264,18.026,24.832c5.253-3.88,9.618-28.373,9.618-28.373
						C79.075,23.991,80.695,18.892,83.605,16.789z"/>
				</g>
				<g>
					<path style="fill:#AA471E;" d="M151.727,16.789c2.91,2.102,4.53,7.202,5.095,10.427l-10.509-7.923
						C147.802,17.501,149.991,15.534,151.727,16.789z"/>
					<path style="fill:#D36829;" d="M151.727,16.789c-1.735-1.255-3.925,0.712-5.414,2.504l-4.598-2.9c0,0,5.607-9.304,16.076-7.057
						c13.565,2.911,27.16,14.631,26.676,21.421c-0.485,6.79-10.674,30.264-18.027,24.832c-5.253-3.88-9.618-28.373-9.618-28.373
						C156.257,23.991,154.637,18.892,151.727,16.789z"/>
				</g>
			</g>
		</g>
	</g>
</g>
</svg>
