<?xml version="1.0" encoding="utf-8"?>
<!-- Generator: Adobe Illustrator 27.5.0, SVG Export Plug-In . SVG Version: 6.00 Build 0)  -->
<svg version="1.1" xmlns="http://www.w3.org/2000/svg" xmlns:xlink="http://www.w3.org/1999/xlink" x="0px" y="0px"
	 viewBox="0 0 500 500" style="enable-background:new 0 0 500 500;" xml:space="preserve">
<g id="BACKGROUND">
	<rect style="fill:#F2F2F2;" width="500" height="500"/>
</g>
<g id="OBJECTS">
	<linearGradient id="SVGID_1_" gradientUnits="userSpaceOnUse" x1="68.1492" y1="388.36" x2="418.5487" y2="388.36">
		<stop  offset="0" style="stop-color:#FFFFFF"/>
		<stop  offset="0.5757" style="stop-color:#A7A9AC"/>
		<stop  offset="1" style="stop-color:#FFFFFF"/>
	</linearGradient>
	<polygon style="fill:url(#SVGID_1_);" points="84.87,418.231 371.222,418.231 421.718,358.489 138.165,358.489 	"/>
	<g>
		<g>
			
				<linearGradient id="SVGID_00000166642871222014541430000002254582861276691888_" gradientUnits="userSpaceOnUse" x1="271.3413" y1="321.5547" x2="248.8755" y2="376.1359">
				<stop  offset="0" style="stop-color:#FF980F"/>
				<stop  offset="1" style="stop-color:#A53F00"/>
			</linearGradient>
			<polygon style="fill:url(#SVGID_00000166642871222014541430000002254582861276691888_);" points="366.299,367.11 161.092,367.11 
				113.032,415.354 352.434,415.354 370.424,367.11 370.424,360.782 			"/>
			
				<linearGradient id="SVGID_00000002347302659394555180000012393289400855979137_" gradientUnits="userSpaceOnUse" x1="113.0321" y1="384.904" x2="370.4238" y2="384.904">
				<stop  offset="0" style="stop-color:#FF980F"/>
				<stop  offset="1" style="stop-color:#A53F00"/>
			</linearGradient>
			<polyline style="fill:url(#SVGID_00000002347302659394555180000012393289400855979137_);" points="113.032,409.026 
				161.092,360.782 370.424,360.782 352.434,409.026 			"/>
			
				<linearGradient id="SVGID_00000073706595588030468000000003916653459073102980_" gradientUnits="userSpaceOnUse" x1="108.3915" y1="384.8123" x2="346.1068" y2="384.8123">
				<stop  offset="0" style="stop-color:#CEDAE0"/>
				<stop  offset="1" style="stop-color:#A5B7C6"/>
			</linearGradient>
			<path style="fill:url(#SVGID_00000073706595588030468000000003916653459073102980_);" d="M115.328,411.136
				c-4.485-7.376-6.937-16.633-6.937-26.325c0-9.694,2.45-18.948,6.937-26.323h230.779v52.647H115.328z"/>
			
				<linearGradient id="SVGID_00000047776996954457656880000005296485658079428796_" gradientUnits="userSpaceOnUse" x1="375.4305" y1="386.832" x2="345.9452" y2="362.6674">
				<stop  offset="0" style="stop-color:#CEDAE0"/>
				<stop  offset="1" style="stop-color:#A5B7C6"/>
			</linearGradient>
			<polygon style="fill:url(#SVGID_00000047776996954457656880000005296485658079428796_);" points="362.188,366.707 
				346.097,409.532 345.28,352.498 361.634,328.784 			"/>
			
				<linearGradient id="SVGID_00000167382461946237344260000003347192953565478562_" gradientUnits="userSpaceOnUse" x1="227.2491" y1="411.1359" x2="227.2491" y2="365.9144">
				<stop  offset="0" style="stop-color:#F2F2F2"/>
				<stop  offset="1" style="stop-color:#CEDAE0"/>
			</linearGradient>
			<path style="fill:url(#SVGID_00000167382461946237344260000003347192953565478562_);" d="M115.328,411.136
				c-4.485-6.336-6.937-14.287-6.937-22.612c0-8.326,2.45-16.276,6.937-22.61h230.779v45.221H115.328z"/>
			<g>
				<g>
					<rect x="118.673" y="370.983" style="fill:#DCE8EF;" width="227.366" height="1.951"/>
				</g>
				<g>
					<rect x="114.189" y="379.559" style="fill:#DCE8EF;" width="231.851" height="1.951"/>
				</g>
				<g>
					<rect x="114.189" y="388.123" style="fill:#DCE8EF;" width="231.851" height="1.951"/>
				</g>
				<g>
					<rect x="118.66" y="396.689" style="fill:#DCE8EF;" width="227.379" height="1.951"/>
				</g>
			</g>
			
				<linearGradient id="SVGID_00000010297404041338761850000010898110541666461086_" gradientUnits="userSpaceOnUse" x1="275.6633" y1="269.4059" x2="252.5945" y2="318.4083">
				<stop  offset="0" style="stop-color:#FF980F"/>
				<stop  offset="1" style="stop-color:#A53F00"/>
			</linearGradient>
			<polygon style="fill:url(#SVGID_00000010297404041338761850000010898110541666461086_);" points="113.032,360.597 
				161.092,312.353 370.424,312.353 352.434,360.597 			"/>
			<polygon style="fill:#E0DD8C;" points="370.424,312.353 370.424,306.025 365.79,313.248 			"/>
			
				<linearGradient id="SVGID_00000047750099835237853160000017162471114085367981_" gradientUnits="userSpaceOnUse" x1="251.8914" y1="294.0833" x2="237.8692" y2="343.8395">
				<stop  offset="0" style="stop-color:#FF980F"/>
				<stop  offset="1" style="stop-color:#A53F00"/>
			</linearGradient>
			<polyline style="fill:url(#SVGID_00000047750099835237853160000017162471114085367981_);" points="113.032,354.269 
				161.092,306.025 370.424,306.025 352.434,354.269 			"/>
			
				<linearGradient id="SVGID_00000144337063364369727960000012184160134785533867_" gradientUnits="userSpaceOnUse" x1="209.1962" y1="321.3685" x2="277.6996" y2="512.5798">
				<stop  offset="0" style="stop-color:#FF980F"/>
				<stop  offset="1" style="stop-color:#A53F00"/>
			</linearGradient>
			<path style="fill:url(#SVGID_00000144337063364369727960000012184160134785533867_);" d="M116.534,360.597
				c-3.902,6.876-6.033,15.335-6.033,24.215c0,8.859,2.13,17.338,6.033,24.214h235.901v6.328H113.032
				c-5.505-8.036-8.859-18.773-8.859-30.542c0-11.77,3.354-22.506,8.859-30.542h239.402v6.328H116.534z"/>
			
				<linearGradient id="SVGID_00000127015223786973805880000013989746701249862298_" gradientUnits="userSpaceOnUse" x1="129.3803" y1="396.8191" x2="129.3803" y2="370.9317">
				<stop  offset="0" style="stop-color:#FF980F"/>
				<stop  offset="1" style="stop-color:#A53F00"/>
			</linearGradient>
			<polygon style="fill:url(#SVGID_00000127015223786973805880000013989746701249862298_);" points="134.93,395.402 129.38,391.805 
				123.83,395.402 123.83,370.973 134.93,370.973 			"/>
		</g>
	</g>
	<g>
		<g>
			
				<linearGradient id="SVGID_00000133505505109722686580000012592747411026287763_" gradientUnits="userSpaceOnUse" x1="131.8175" y1="322.1789" x2="389.2092" y2="322.1789">
				<stop  offset="0" style="stop-color:#61A3B4"/>
				<stop  offset="0.9976" style="stop-color:#83C6D6"/>
			</linearGradient>
			<polygon style="fill:url(#SVGID_00000133505505109722686580000012592747411026287763_);" points="385.085,301.221 
				179.878,301.221 131.817,349.465 371.22,349.465 389.209,301.221 389.209,294.893 			"/>
			
				<linearGradient id="SVGID_00000155835583340715122780000010472765529826000545_" gradientUnits="userSpaceOnUse" x1="131.8174" y1="319.015" x2="389.2091" y2="319.015">
				<stop  offset="0" style="stop-color:#61A3B4"/>
				<stop  offset="0.9976" style="stop-color:#83C6D6"/>
			</linearGradient>
			<polyline style="fill:url(#SVGID_00000155835583340715122780000010472765529826000545_);" points="131.817,343.137 
				179.878,294.893 389.209,294.893 371.22,343.137 			"/>
			<path style="fill:#DEE0E0;" d="M134.113,345.247c-4.485-7.376-6.937-16.633-6.937-26.325c0-9.694,2.45-18.949,6.937-26.323
				h230.779v52.647H134.113z"/>
			
				<linearGradient id="SVGID_00000160187862811263789910000007300275793020066489_" gradientUnits="userSpaceOnUse" x1="149.8005" y1="274.4949" x2="380.9736" y2="274.4949">
				<stop  offset="0" style="stop-color:#CEDAE0"/>
				<stop  offset="1" style="stop-color:#A5B7C6"/>
			</linearGradient>
			<path style="fill:url(#SVGID_00000160187862811263789910000007300275793020066489_);" d="M150.195,300.819
				c-4.485-7.376,30.773-9.016,30.773-18.707c0-9.694,4.236,1.923,8.722-5.451l191.283-28.489v52.647H150.195z"/>
			
				<linearGradient id="SVGID_00000181084893186720837640000005503812982092073097_" gradientUnits="userSpaceOnUse" x1="380.1824" y1="307.4065" x2="364.4422" y2="298.7605">
				<stop  offset="0" style="stop-color:#CEDAE0"/>
				<stop  offset="1" style="stop-color:#A5B7C6"/>
			</linearGradient>
			<polygon style="fill:url(#SVGID_00000181084893186720837640000005503812982092073097_);" points="380.974,300.819 
				364.883,343.643 364.065,286.609 380.419,262.895 			"/>
			
				<linearGradient id="SVGID_00000052821517824689828040000005798709427499888002_" gradientUnits="userSpaceOnUse" x1="246.0345" y1="345.247" x2="246.0345" y2="300.0255">
				<stop  offset="0" style="stop-color:#F2F2F2"/>
				<stop  offset="1" style="stop-color:#CEDAE0"/>
			</linearGradient>
			<path style="fill:url(#SVGID_00000052821517824689828040000005798709427499888002_);" d="M134.113,345.247
				c-4.485-6.336-6.937-14.287-6.937-22.612c0-8.326,2.45-16.276,6.937-22.61h230.779v45.221H134.113z"/>
			<g>
				<g>
					<rect x="137.458" y="305.094" style="fill:#DCE8EF;" width="227.366" height="1.951"/>
				</g>
				<g>
					<rect x="132.974" y="313.67" style="fill:#DCE8EF;" width="231.85" height="1.951"/>
				</g>
				<g>
					<rect x="132.974" y="322.234" style="fill:#DCE8EF;" width="231.85" height="1.951"/>
				</g>
				<g>
					<rect x="137.446" y="330.801" style="fill:#DCE8EF;" width="227.379" height="1.951"/>
				</g>
			</g>
			
				<linearGradient id="SVGID_00000098205696361351141920000018267626065308374943_" gradientUnits="userSpaceOnUse" x1="131.8175" y1="267.4221" x2="389.2092" y2="267.4221">
				<stop  offset="0" style="stop-color:#61A3B4"/>
				<stop  offset="0.9976" style="stop-color:#83C6D6"/>
			</linearGradient>
			<polygon style="fill:url(#SVGID_00000098205696361351141920000018267626065308374943_);" points="385.15,246.464 
				179.878,246.464 131.817,294.708 371.22,294.708 389.209,246.464 389.209,240.136 			"/>
			
				<linearGradient id="SVGID_00000178205008008205441990000015000378272394836647_" gradientUnits="userSpaceOnUse" x1="280.8077" y1="199.7181" x2="255.7034" y2="279.5543">
				<stop  offset="0" style="stop-color:#61A3B4"/>
				<stop  offset="0.9976" style="stop-color:#83C6D6"/>
			</linearGradient>
			<polyline style="fill:url(#SVGID_00000178205008008205441990000015000378272394836647_);" points="131.817,288.38 
				179.878,240.136 389.209,240.136 371.22,288.38 			"/>
			
				<linearGradient id="SVGID_00000176726809159050616460000002332678393663366580_" gradientUnits="userSpaceOnUse" x1="247.0889" y1="342.7921" x2="247.0889" y2="288.102">
				<stop  offset="0" style="stop-color:#71B4C4"/>
				<stop  offset="0.987" style="stop-color:#A5D5E1"/>
			</linearGradient>
			<path style="fill:url(#SVGID_00000176726809159050616460000002332678393663366580_);" d="M134.093,297.037
				c-3.113,6.41-4.808,13.985-4.808,21.882c0,8.866,2.133,17.34,6.03,24.222h235.906v6.329h-239.4
				c-5.511-8.047-8.866-18.781-8.866-30.552c0-5.384,0.703-10.561,1.994-15.357c1.533-5.684,3.885-10.826,6.871-15.184h239.4v6.329
				H135.315c-0.427,0.749-0.83,1.522-1.211,2.317C134.105,297.025,134.105,297.025,134.093,297.037z"/>
			<path style="opacity:0.3;fill:#D1D3D4;" d="M308.942,307.113l-117.111,36.028l-20.579,6.329h-39.429
				c-5.511-8.047-8.866-18.781-8.866-30.552c0-5.384,0.703-10.561,1.994-15.357c2.767-1.971,5.903-4.22,9.143-6.526
				c0.012-0.012,0.012-0.012,0.012-0.012c1.072-0.761,2.156-1.533,3.24-2.317c3.021-2.144,6.064-4.3,8.912-6.329
				c8.405-5.972,15.195-10.78,15.195-10.78l140.527-7.84l3.47,18.619l1.176,6.329L308.942,307.113z"/>
			
				<linearGradient id="SVGID_00000107558288576508200210000008262901476840260002_" gradientUnits="userSpaceOnUse" x1="151.2207" y1="313.607" x2="151.2207" y2="329.3999">
				<stop  offset="0" style="stop-color:#71B4C4"/>
				<stop  offset="0.987" style="stop-color:#A5D5E1"/>
			</linearGradient>
			<polygon style="fill:url(#SVGID_00000107558288576508200210000008262901476840260002_);" points="156.771,327.208 
				151.221,323.612 145.671,327.208 145.671,313.429 156.771,313.429 			"/>
		</g>
	</g>
	<g>
		<g>
			<polyline style="fill:#E0DD8C;" points="308.939,307.109 267.904,265.917 192.607,286.08 104.532,307.11 			"/>
			<polygon style="fill:#E0DD8C;" points="192.607,280.677 192.607,286.08 212.669,289.012 			"/>
			<path style="fill:#C66300;" d="M355.957,204.39c3.332,5.871,5.151,13.093,5.151,20.675c0,7.564-1.819,14.804-5.151,20.675
				l-189.025,37.178v5.403l192.015-37.178c4.701-6.862,7.564-16.029,7.564-26.078c0-10.049-2.863-19.216-7.564-26.078H183.598v5.403
				L355.957,204.39z"/>
			<polyline style="fill:#FEFEB5;" points="308.939,301.707 267.904,260.514 192.607,280.677 104.532,301.707 			"/>
			
				<linearGradient id="SVGID_00000158731464368946691880000005616628729112107682_" gradientUnits="userSpaceOnUse" x1="109.9344" y1="281.0323" x2="312.9014" y2="281.0323">
				<stop  offset="0" style="stop-color:#CEDAE0"/>
				<stop  offset="1" style="stop-color:#A5B7C6"/>
			</linearGradient>
			<path style="fill:url(#SVGID_00000158731464368946691880000005616628729112107682_);" d="M306.979,303.508
				c3.83-6.298,5.923-14.202,5.923-22.477c0-8.277-2.092-16.179-5.923-22.475l-197.044,0v44.951L306.979,303.508z"/>
			
				<linearGradient id="SVGID_00000012431996773586678730000015501123441972153478_" gradientUnits="userSpaceOnUse" x1="211.4179" y1="303.5081" x2="211.4179" y2="264.8968">
				<stop  offset="0" style="stop-color:#F2F2F2"/>
				<stop  offset="1" style="stop-color:#CEDAE0"/>
			</linearGradient>
			<path style="fill:url(#SVGID_00000012431996773586678730000015501123441972153478_);" d="M306.979,303.508
				c3.83-5.41,5.923-12.199,5.923-19.306c0-7.109-2.092-13.897-5.923-19.305l-197.044,0v38.611L306.979,303.508z"/>
			<g>
				<g>
					<rect x="109.992" y="269.225" style="fill:#DCE8EF;" width="194.131" height="1.665"/>
				</g>
				<g>
					<rect x="109.992" y="276.547" style="fill:#DCE8EF;" width="197.959" height="1.665"/>
				</g>
				<g>
					<rect x="109.992" y="283.859" style="fill:#DCE8EF;" width="197.959" height="1.665"/>
				</g>
				<g>
					<rect x="109.992" y="291.173" style="fill:#DCE8EF;" width="194.141" height="1.665"/>
				</g>
			</g>
			<polyline style="fill:#E0DD8C;" points="308.939,260.357 358.946,204.39 180.214,204.39 104.532,260.357 			"/>
			<polygon style="fill:#E0DD8C;" points="180.214,204.39 180.214,198.987 191.619,230.364 			"/>
			
				<linearGradient id="SVGID_00000062194089743179545450000008553261637989701505_" gradientUnits="userSpaceOnUse" x1="230.9895" y1="258.071" x2="231.6547" y2="230.47">
				<stop  offset="0" style="stop-color:#FFC82E"/>
				<stop  offset="1" style="stop-color:#D47D1A"/>
			</linearGradient>
			<polygon style="fill:url(#SVGID_00000062194089743179545450000008553261637989701505_);" points="180.214,198.987 
				104.532,254.954 308.939,254.954 358.946,198.987 			"/>
			
				<linearGradient id="SVGID_00000106104911440909035220000012985634690113645220_" gradientUnits="userSpaceOnUse" x1="327.475" y1="290.5934" x2="335.456" y2="245.0352">
				<stop  offset="0" style="stop-color:#FFC82E"/>
				<stop  offset="1" style="stop-color:#D47D1A"/>
			</linearGradient>
			<path style="fill:url(#SVGID_00000106104911440909035220000012985634690113645220_);" d="M358.946,251.142l-50.007,55.967
				c0,0,3.952-17.904,3.952-18.783c0-0.879,0.293-18.165,0.293-18.165l-4.245-15.208l50.007-55.967l4.837,25.793L358.946,251.142z"
				/>
			
				<linearGradient id="SVGID_00000073715721558970270530000010412834557673025197_" gradientUnits="userSpaceOnUse" x1="200.5529" y1="197.8939" x2="212.1917" y2="308.6299">
				<stop  offset="0" style="stop-color:#FFC82E"/>
				<stop  offset="1" style="stop-color:#D47D1A"/>
			</linearGradient>
			<path style="fill:url(#SVGID_00000073715721558970270530000010412834557673025197_);" d="M305.949,260.357
				c3.332,5.871,5.151,13.093,5.151,20.675c0,7.564-1.819,14.804-5.151,20.675l-201.418,0v5.403l204.407,0
				c4.7-6.862,7.564-16.029,7.564-26.078c0-10.049-2.863-19.216-7.564-26.078l-204.407,0v5.403L305.949,260.357z"/>
			
				<linearGradient id="SVGID_00000097488948769011606270000003625667439963216570_" gradientUnits="userSpaceOnUse" x1="287.494" y1="283.6731" x2="287.494" y2="269.0717">
				<stop  offset="0" style="stop-color:#FFC82E"/>
				<stop  offset="1" style="stop-color:#D47D1A"/>
			</linearGradient>
			<polygon style="fill:url(#SVGID_00000097488948769011606270000003625667439963216570_);" points="293.044,282.874 
				287.494,279.277 281.944,282.874 281.944,269.095 293.044,269.095 			"/>
		</g>
	</g>
	<g>
		<g>
			
				<linearGradient id="SVGID_00000165943237675063126310000008747990710448430499_" gradientUnits="userSpaceOnUse" x1="258.4213" y1="183.9977" x2="252.2395" y2="317.7365">
				<stop  offset="0" style="stop-color:#51626A"/>
				<stop  offset="0.2419" style="stop-color:#414F55"/>
				<stop  offset="0.7394" style="stop-color:#181D1F"/>
				<stop  offset="1" style="stop-color:#000000"/>
			</linearGradient>
			<polygon style="fill:url(#SVGID_00000165943237675063126310000008747990710448430499_);" points="381.108,200.661 
				175.901,200.661 127.84,248.905 367.242,248.905 385.232,200.661 385.232,194.333 			"/>
			
				<linearGradient id="SVGID_00000026157276878473412820000002467273920121177480_" gradientUnits="userSpaceOnUse" x1="127.8402" y1="218.4555" x2="385.2319" y2="218.4555">
				<stop  offset="0" style="stop-color:#51626A"/>
				<stop  offset="0.2419" style="stop-color:#414F55"/>
				<stop  offset="0.7394" style="stop-color:#181D1F"/>
				<stop  offset="1" style="stop-color:#000000"/>
			</linearGradient>
			<polyline style="fill:url(#SVGID_00000026157276878473412820000002467273920121177480_);" points="127.84,242.578 
				175.901,194.333 385.232,194.333 367.242,242.578 			"/>
			<path style="fill:#DEE0E0;" d="M130.136,244.687c-4.485-7.376-6.936-16.633-6.936-26.325c0-9.693,2.45-18.948,6.936-26.323
				h230.779v52.647H130.136z"/>
			
				<linearGradient id="SVGID_00000145768845838413095040000005782904997905809334_" gradientUnits="userSpaceOnUse" x1="145.8233" y1="173.9353" x2="376.9964" y2="173.9353">
				<stop  offset="0" style="stop-color:#CEDAE0"/>
				<stop  offset="1" style="stop-color:#A5B7C6"/>
			</linearGradient>
			<path style="fill:url(#SVGID_00000145768845838413095040000005782904997905809334_);" d="M146.218,200.259
				c-4.485-7.376,30.773-9.016,30.773-18.707c0-9.694,4.236,1.923,8.722-5.451l191.283-28.489v52.647H146.218z"/>
			
				<linearGradient id="SVGID_00000145755642660690094770000005250148617183035069_" gradientUnits="userSpaceOnUse" x1="384.2505" y1="231.3716" x2="362.0811" y2="190.5799">
				<stop  offset="0" style="stop-color:#CEDAE0"/>
				<stop  offset="1" style="stop-color:#A5B7C6"/>
			</linearGradient>
			<polygon style="fill:url(#SVGID_00000145755642660690094770000005250148617183035069_);" points="376.996,200.259 
				360.905,243.084 360.088,186.049 376.442,162.336 			"/>
			
				<linearGradient id="SVGID_00000084519109501364751110000009931644382222810248_" gradientUnits="userSpaceOnUse" x1="242.0573" y1="244.6874" x2="242.0573" y2="199.4659">
				<stop  offset="0" style="stop-color:#F2F2F2"/>
				<stop  offset="1" style="stop-color:#CEDAE0"/>
			</linearGradient>
			<path style="fill:url(#SVGID_00000084519109501364751110000009931644382222810248_);" d="M130.136,244.687
				c-4.485-6.336-6.936-14.287-6.936-22.612c0-8.326,2.45-16.276,6.936-22.61h230.779v45.221H130.136z"/>
			<g>
				<g>
					<rect x="133.481" y="204.535" style="fill:#DCE8EF;" width="227.366" height="1.951"/>
				</g>
				<g>
					<rect x="128.997" y="213.111" style="fill:#DCE8EF;" width="231.85" height="1.951"/>
				</g>
				<g>
					<rect x="128.997" y="221.675" style="fill:#DCE8EF;" width="231.85" height="1.951"/>
				</g>
				<g>
					<rect x="133.468" y="230.241" style="fill:#DCE8EF;" width="227.379" height="1.951"/>
				</g>
			</g>
			
				<linearGradient id="SVGID_00000044136112215436576420000003760030016253495170_" gradientUnits="userSpaceOnUse" x1="258.6831" y1="154.4291" x2="248.4303" y2="228.9127">
				<stop  offset="0" style="stop-color:#51626A"/>
				<stop  offset="0.2419" style="stop-color:#414F55"/>
				<stop  offset="0.7394" style="stop-color:#181D1F"/>
				<stop  offset="1" style="stop-color:#000000"/>
			</linearGradient>
			<polygon style="fill:url(#SVGID_00000044136112215436576420000003760030016253495170_);" points="381.173,145.904 
				175.901,145.904 127.84,194.149 367.242,194.149 385.232,145.904 385.232,139.577 			"/>
			
				<linearGradient id="SVGID_00000111182193989782123630000008992844747632693382_" gradientUnits="userSpaceOnUse" x1="289.1356" y1="50.2356" x2="254.306" y2="171.4604">
				<stop  offset="0" style="stop-color:#51626A"/>
				<stop  offset="0.2419" style="stop-color:#414F55"/>
				<stop  offset="0.7394" style="stop-color:#181D1F"/>
				<stop  offset="1" style="stop-color:#000000"/>
			</linearGradient>
			<polyline style="fill:url(#SVGID_00000111182193989782123630000008992844747632693382_);" points="127.84,187.821 
				175.901,139.577 385.232,139.577 367.242,187.821 			"/>
			
				<linearGradient id="SVGID_00000122683527348221269880000009100595728074111108_" gradientUnits="userSpaceOnUse" x1="376.3484" y1="246.654" x2="132.5959" y2="193.115">
				<stop  offset="0" style="stop-color:#51626A"/>
				<stop  offset="0.2419" style="stop-color:#414F55"/>
				<stop  offset="0.7394" style="stop-color:#181D1F"/>
				<stop  offset="1" style="stop-color:#000000"/>
			</linearGradient>
			<path style="fill:url(#SVGID_00000122683527348221269880000009100595728074111108_);" d="M131.338,194.152
				c-3.897,6.871-6.03,15.334-6.03,24.211c0,8.854,2.133,17.34,6.03,24.211h235.906v6.329H127.845
				c-0.381-0.553-0.749-1.118-1.095-1.695c-4.865-7.817-7.771-17.882-7.771-28.846c0-11.771,3.355-22.505,8.866-30.54h239.399v6.329
				H131.338z"/>
			<path style="opacity:0.3;fill:#D1D3D4;" d="M294.093,190.97l-9.465,3.182l-144.089,48.422l-13.789,4.635
				c-4.865-7.817-7.771-17.882-7.771-28.846c0-11.771,3.355-22.505,8.866-30.54h161.867
				C292.363,189.725,294.093,190.97,294.093,190.97z"/>
			
				<linearGradient id="SVGID_00000021096197738317057610000009664760669171541135_" gradientUnits="userSpaceOnUse" x1="147.2319" y1="224.0152" x2="147.2319" y2="203.9908">
				<stop  offset="0" style="stop-color:#51626A"/>
				<stop  offset="0.2419" style="stop-color:#414F55"/>
				<stop  offset="0.7394" style="stop-color:#181D1F"/>
				<stop  offset="1" style="stop-color:#000000"/>
			</linearGradient>
			<polygon style="fill:url(#SVGID_00000021096197738317057610000009664760669171541135_);" points="152.782,230.567 
				147.232,226.97 141.682,230.567 141.682,204.807 152.782,204.807 			"/>
		</g>
	</g>
	<g>
		<g>
			
				<linearGradient id="SVGID_00000158731014692617598560000017808170649675782845_" gradientUnits="userSpaceOnUse" x1="103.9287" y1="168.2594" x2="399.7278" y2="168.2594">
				<stop  offset="0" style="stop-color:#D47D1A"/>
				<stop  offset="1" style="stop-color:#FFC82E"/>
			</linearGradient>
			<polygon style="fill:url(#SVGID_00000158731014692617598560000017808170649675782845_);" points="387.389,150.67 
				142.104,152.654 103.929,190.975 294.091,190.975 399.728,150.57 399.728,145.544 			"/>
			
				<linearGradient id="SVGID_00000139261437374178754060000011818648008878884030_" gradientUnits="userSpaceOnUse" x1="103.9287" y1="165.7463" x2="399.7278" y2="165.7463">
				<stop  offset="0" style="stop-color:#DE9D1E"/>
				<stop  offset="1" style="stop-color:#E98100"/>
			</linearGradient>
			<polyline style="fill:url(#SVGID_00000139261437374178754060000011818648008878884030_);" points="103.929,185.949 
				142.104,147.628 399.728,145.544 294.091,185.949 			"/>
			
				<linearGradient id="SVGID_00000096745010721577986240000006726410915446195877_" gradientUnits="userSpaceOnUse" x1="194.6537" y1="188.3673" x2="194.6537" y2="146.5484">
				<stop  offset="0" style="stop-color:#CEDAE0"/>
				<stop  offset="1" style="stop-color:#A5B7C6"/>
			</linearGradient>
			<path style="fill:url(#SVGID_00000096745010721577986240000006726410915446195877_);" d="M105.752,187.625
				c-3.563-5.859-5.51-13.212-5.51-20.91c0-7.7,1.946-15.051,5.51-20.909h183.312v41.819H105.752z"/>
			
				<linearGradient id="SVGID_00000018222891314656903560000009429740461167452555_" gradientUnits="userSpaceOnUse" x1="343.1487" y1="172.8586" x2="339.6015" y2="140.9347">
				<stop  offset="0" style="stop-color:#CEDAE0"/>
				<stop  offset="1" style="stop-color:#A5B7C6"/>
			</linearGradient>
			<polygon style="fill:url(#SVGID_00000018222891314656903560000009429740461167452555_);" points="391.49,146.04 289.057,186.351 
				288.408,141.048 391.694,109.448 			"/>
			
				<linearGradient id="SVGID_00000108293826377823899510000016205088689860078725_" gradientUnits="userSpaceOnUse" x1="194.6537" y1="187.625" x2="194.6537" y2="151.7046">
				<stop  offset="0" style="stop-color:#F2F2F2"/>
				<stop  offset="1" style="stop-color:#CEDAE0"/>
			</linearGradient>
			<path style="fill:url(#SVGID_00000108293826377823899510000016205088689860078725_);" d="M105.752,187.625
				c-3.563-5.033-5.51-11.349-5.51-17.961c0-6.614,1.946-12.928,5.51-17.959h183.312v35.92H105.752z"/>
			<g>
				<g>
					<rect x="108.409" y="155.731" style="fill:#DCE8EF;" width="180.602" height="1.549"/>
				</g>
				<g>
					<rect x="104.847" y="162.543" style="fill:#DCE8EF;" width="184.163" height="1.549"/>
				</g>
				<g>
					<rect x="104.847" y="169.346" style="fill:#DCE8EF;" width="184.163" height="1.549"/>
				</g>
				<g>
					<rect x="108.399" y="176.15" style="fill:#DCE8EF;" width="180.612" height="1.549"/>
				</g>
			</g>
			
				<linearGradient id="SVGID_00000062883248748746028960000014161971987016019084_" gradientUnits="userSpaceOnUse" x1="103.9287" y1="125.8072" x2="399.7278" y2="125.8072">
				<stop  offset="0" style="stop-color:#D47D1A"/>
				<stop  offset="1" style="stop-color:#FFC82E"/>
			</linearGradient>
			<polygon style="fill:url(#SVGID_00000062883248748746028960000014161971987016019084_);" points="381.583,109.16 233.452,109.16 
				103.929,147.481 294.091,147.481 399.728,109.16 399.728,104.133 			"/>
			
				<linearGradient id="SVGID_00000152247611409257530130000013044980851860202638_" gradientUnits="userSpaceOnUse" x1="305.8779" y1="61.5229" x2="244.6627" y2="131.4832">
				<stop  offset="0" style="stop-color:#DE9D1E"/>
				<stop  offset="1" style="stop-color:#E98100"/>
			</linearGradient>
			<polyline style="fill:url(#SVGID_00000152247611409257530130000013044980851860202638_);" points="103.929,142.455 
				233.452,104.133 399.728,104.133 294.091,142.455 			"/>
			
				<linearGradient id="SVGID_00000026847945229924462980000017743022162030984885_" gradientUnits="userSpaceOnUse" x1="195.1351" y1="172.6111" x2="166.5366" y2="216.1739">
				<stop  offset="0" style="stop-color:#FFC82E"/>
				<stop  offset="1" style="stop-color:#D47D1A"/>
			</linearGradient>
			<path style="fill:url(#SVGID_00000026847945229924462980000017743022162030984885_);" d="M106.71,147.481
				c-3.1,5.462-4.792,12.18-4.792,19.234c0,7.037,1.692,13.772,4.792,19.234h187.381v5.026H103.929
				c-4.373-6.383-7.037-14.911-7.037-24.26c0-9.349,2.664-17.877,7.037-24.26h190.162v5.026H106.71z"/>
			
				<linearGradient id="SVGID_00000011000015577189135980000002687105360015189130_" gradientUnits="userSpaceOnUse" x1="122.122" y1="169.8139" x2="122.122" y2="155.0372">
				<stop  offset="0" style="stop-color:#FFC82E"/>
				<stop  offset="1" style="stop-color:#D47D1A"/>
			</linearGradient>
			<polygon style="fill:url(#SVGID_00000011000015577189135980000002687105360015189130_);" points="127.672,169.347 
				122.122,165.751 116.572,169.347 116.572,155.568 127.672,155.568 			"/>
		</g>
	</g>
	<g>
		<g>
			<polyline style="fill:#E0DD8C;" points="344.446,138.271 306.271,99.949 236.221,118.707 154.284,138.271 			"/>
			<polygon style="fill:#E0DD8C;" points="236.221,113.68 236.221,118.707 254.885,121.435 			"/>
			<polyline style="fill:#FEFEB5;" points="344.446,133.245 306.271,94.923 236.221,113.68 154.284,133.245 			"/>
			
				<linearGradient id="SVGID_00000163790834403227313710000015280397424623408815_" gradientUnits="userSpaceOnUse" x1="253.7214" y1="124.9627" x2="253.7214" y2="69.6078">
				<stop  offset="0" style="stop-color:#CEDAE0"/>
				<stop  offset="1" style="stop-color:#A5B7C6"/>
			</linearGradient>
			<path style="fill:url(#SVGID_00000163790834403227313710000015280397424623408815_);" d="M342.623,134.92
				c3.563-5.859,5.51-13.212,5.51-20.91c0-7.7-1.946-15.051-5.51-20.909l-183.312,0v41.819H342.623z"/>
			
				<linearGradient id="SVGID_00000066477095354752231120000005365736121719147413_" gradientUnits="userSpaceOnUse" x1="309.1519" y1="98.3009" x2="317.1329" y2="132.2202">
				<stop  offset="0" style="stop-color:#C7DEE4"/>
				<stop  offset="1" style="stop-color:#61A3B4"/>
			</linearGradient>
			<path style="fill:url(#SVGID_00000066477095354752231120000005365736121719147413_);" d="M402.497,72.27H239.369v5.026l146.436,0
				L344.446,89.75l3.949,14.148c0,0-0.117,6.878-0.197,11.867l-135.863,0v5.026l135.788,0c0,0.001,0,0.005,0,0.006
				c0,0.818-3.677,17.474-3.677,17.474l58.051-17.48c4.373-6.383,7.037-14.911,7.037-24.26S406.87,78.654,402.497,72.27z"/>
			
				<linearGradient id="SVGID_00000057136584191098149600000013280110599524476602_" gradientUnits="userSpaceOnUse" x1="253.7214" y1="134.9204" x2="253.7214" y2="99">
				<stop  offset="0" style="stop-color:#F2F2F2"/>
				<stop  offset="1" style="stop-color:#CEDAE0"/>
			</linearGradient>
			<path style="fill:url(#SVGID_00000057136584191098149600000013280110599524476602_);" d="M342.623,134.92
				c3.563-5.033,5.51-11.349,5.51-17.961c0-6.614-1.946-12.928-5.51-17.96L159.31,99v35.92H342.623z"/>
			<g>
				<g>
					<rect x="159.364" y="103.026" style="fill:#DCE8EF;" width="180.602" height="1.549"/>
				</g>
				<g>
					<rect x="159.364" y="109.838" style="fill:#DCE8EF;" width="184.163" height="1.549"/>
				</g>
				<g>
					<rect x="159.364" y="116.641" style="fill:#DCE8EF;" width="184.163" height="1.549"/>
				</g>
				<g>
					<rect x="159.364" y="123.445" style="fill:#DCE8EF;" width="180.611" height="1.549"/>
				</g>
			</g>
			<polygon style="fill:#E0DD8C;" points="236.221,77.297 236.221,72.27 258.361,78.403 			"/>
			
				<linearGradient id="SVGID_00000008140754056785700400000012520172386198380437_" gradientUnits="userSpaceOnUse" x1="276.7475" y1="89.8429" x2="283.9848" y2="50.9425">
				<stop  offset="0" style="stop-color:#C7DEE4"/>
				<stop  offset="1" style="stop-color:#61A3B4"/>
			</linearGradient>
			<polyline style="fill:url(#SVGID_00000008140754056785700400000012520172386198380437_);" points="344.446,89.75 402.497,72.27 
				236.221,72.27 154.284,89.75 			"/>
			
				<linearGradient id="SVGID_00000004540593191347982650000003037203793587815315_" gradientUnits="userSpaceOnUse" x1="379.226" y1="114.0106" x2="204.3249" y2="114.0106">
				<stop  offset="0" style="stop-color:#71B4C4"/>
				<stop  offset="0.987" style="stop-color:#A5D5E1"/>
			</linearGradient>
			<path style="fill:url(#SVGID_00000004540593191347982650000003037203793587815315_);" d="M341.665,94.776
				c3.1,5.462,4.792,12.18,4.792,19.234c0,7.037-1.692,13.772-4.792,19.234l-187.381,0v5.026l190.162,0
				c4.373-6.383,7.037-14.911,7.037-24.26s-2.664-17.877-7.037-24.26H154.284v5.026H341.665z"/>
			
				<linearGradient id="SVGID_00000024719838528121706030000000957485228302916771_" gradientUnits="userSpaceOnUse" x1="326.3358" y1="104.0967" x2="326.3358" y2="119.9558">
				<stop  offset="0" style="stop-color:#71B4C4"/>
				<stop  offset="0.987" style="stop-color:#A5D5E1"/>
			</linearGradient>
			<polygon style="fill:url(#SVGID_00000024719838528121706030000000957485228302916771_);" points="331.886,116.773 
				326.336,113.177 320.786,116.773 320.786,102.994 331.886,102.994 			"/>
		</g>
	</g>
</g>
</svg>
