<?xml version="1.0" encoding="utf-8"?>
<!-- Generator: Adobe Illustrator 27.5.0, SVG Export Plug-In . SVG Version: 6.00 Build 0)  -->
<svg version="1.1" xmlns="http://www.w3.org/2000/svg" xmlns:xlink="http://www.w3.org/1999/xlink" x="0px" y="0px"
	 viewBox="0 0 500 500" style="enable-background:new 0 0 500 500;" xml:space="preserve">
<g id="BACKGROUND">
	<rect style="fill:#FBFFFF;" width="500" height="500"/>
</g>
<g id="OBJECTS">
	<g>
		<defs>
			<rect id="SVGID_1_" width="500" height="500"/>
		</defs>
		<clipPath id="SVGID_00000064344662255044908690000014071184962584964746_">
			<use xlink:href="#SVGID_1_"  style="overflow:visible;"/>
		</clipPath>
		<g style="clip-path:url(#SVGID_00000064344662255044908690000014071184962584964746_);">
			<g>
				<path style="fill:#5B6CB1;" d="M63.948,27.302l45.586,43.074l30.862-0.059l-5.236-32.879L86.531-6.476
					c0,0-12.021-9.617-22.903,2.761C51.562,10.01,54.831,18.687,63.948,27.302z"/>
				<path style="fill:#070000;" d="M63.628-3.715c-12.066,13.725-8.797,22.403,0.32,31.017l3.147,2.974
					c3.002-7.531,11.122-23.853,26.89-30.02l-7.455-6.732C86.531-6.476,74.51-16.094,63.628-3.715z"/>
				<path style="fill:#FBFFFF;" d="M69.125,16.711c-2.228,4.084-3.718,8.011-4.682,11.059l7.539,7.123
					c0.306-1.46,1.734-7.603,5.282-14.026c5.153-9.299,12.173-14.873,20.904-16.552c0.082-0.016,0.153-0.052,0.233-0.072
					L90.436-2.95C81.683,0.369,74.393,7.065,69.125,16.711z"/>
				<polygon style="fill:#F8B193;" points="109.534,70.376 112.143,55.275 122.359,43.152 135.16,37.438 140.396,70.317 				"/>
				
					<line style="fill:none;stroke:#070000;stroke-width:1.8269;stroke-linecap:round;stroke-linejoin:round;stroke-miterlimit:10;" x1="112.143" y1="55.275" x2="76.129" y2="23.056"/>
				
					<line style="fill:none;stroke:#070000;stroke-width:1.8269;stroke-linecap:round;stroke-linejoin:round;stroke-miterlimit:10;" x1="122.359" y1="43.152" x2="86.151" y2="9.919"/>
				<path style="fill:#070000;" d="M133.464,70.331c0,0-1.399-6.11,5.773-7.29c0,0,7.053,7.419,4.832,10.481
					C141.848,76.585,133.464,70.331,133.464,70.331z"/>
			</g>
			<g>
				<g>
					<polygon style="fill:#46B17B;" points="261.922,432.485 272.3,407.9 316.476,392.894 336.918,436.276 331.729,461.694 
						283.532,478.346 					"/>
					<polygon style="fill:#C1D57E;" points="261.922,432.485 310.119,415.833 316.476,392.894 272.3,407.9 					"/>
					<polygon style="fill:#C1D57E;" points="331.729,461.694 310.119,415.833 316.476,392.894 336.918,436.276 					"/>
				</g>
				
					<line style="fill:none;stroke:#070000;stroke-width:1.8269;stroke-linecap:round;stroke-linejoin:round;stroke-miterlimit:10;" x1="310.119" y1="415.833" x2="316.476" y2="392.894"/>
			</g>
			<g>
				<polygon style="fill:#5B6CB1;" points="229.77,22.167 258.287,11.795 297.629,25.207 289.427,70.37 264.204,85.286 
					221.772,66.206 				"/>
				<polygon style="fill:#7BC9EF;" points="229.77,22.167 272.365,37.794 297.629,25.207 258.287,11.795 				"/>
				<polygon style="fill:#7BC9EF;" points="272.365,37.794 264.204,85.286 289.427,70.37 297.629,25.207 				"/>
				
					<line style="fill:none;stroke:#070000;stroke-width:1.8269;stroke-linecap:round;stroke-linejoin:round;stroke-miterlimit:10;" x1="272.365" y1="37.794" x2="297.629" y2="25.207"/>
			</g>
			<g>
				<polygon style="fill:#F8B193;" points="54.593,382.519 24.663,368.961 -13.266,385.56 -5.064,430.723 20.159,445.638 
					62.592,426.558 				"/>
				<polygon style="fill:#EF7F7E;" points="54.593,382.519 11.998,398.147 -13.266,385.56 24.663,368.961 				"/>
				<polygon style="fill:#EF7F7E;" points="11.998,398.147 20.159,445.638 -5.064,430.723 -13.266,385.56 				"/>
				
					<line style="fill:none;stroke:#070000;stroke-width:1.8269;stroke-linecap:round;stroke-linejoin:round;stroke-miterlimit:10;" x1="11.998" y1="398.147" x2="-13.266" y2="385.56"/>
			</g>
			<g>
				
					<rect x="-43.162" y="296.264" transform="matrix(0.6062 0.7953 -0.7953 0.6062 256.257 102.4645)" style="fill:#7BC9EF;" width="135.649" height="27.458"/>
				
					<line style="fill:none;stroke:#FBFFFF;stroke-width:1.8269;stroke-linecap:round;stroke-linejoin:round;stroke-miterlimit:10;" x1="-0.549" y1="254.267" x2="-7.451" y2="259.528"/>
				
					<line style="fill:none;stroke:#FBFFFF;stroke-width:1.8269;stroke-linecap:round;stroke-linejoin:round;stroke-miterlimit:10;" x1="4.988" y1="261.532" x2="-4.82" y2="269.008"/>
				
					<line style="fill:none;stroke:#FBFFFF;stroke-width:1.8269;stroke-linecap:round;stroke-linejoin:round;stroke-miterlimit:10;" x1="10.525" y1="268.797" x2="3.624" y2="274.057"/>
				
					<line style="fill:none;stroke:#FBFFFF;stroke-width:1.8269;stroke-linecap:round;stroke-linejoin:round;stroke-miterlimit:10;" x1="16.063" y1="276.062" x2="6.255" y2="283.537"/>
				
					<line style="fill:none;stroke:#FBFFFF;stroke-width:1.8269;stroke-linecap:round;stroke-linejoin:round;stroke-miterlimit:10;" x1="21.6" y1="283.327" x2="14.698" y2="288.587"/>
				
					<line style="fill:none;stroke:#FBFFFF;stroke-width:1.8269;stroke-linecap:round;stroke-linejoin:round;stroke-miterlimit:10;" x1="27.137" y1="290.592" x2="17.329" y2="298.067"/>
				
					<line style="fill:none;stroke:#FBFFFF;stroke-width:1.8269;stroke-linecap:round;stroke-linejoin:round;stroke-miterlimit:10;" x1="32.674" y1="297.857" x2="25.773" y2="303.117"/>
				
					<line style="fill:none;stroke:#FBFFFF;stroke-width:1.8269;stroke-linecap:round;stroke-linejoin:round;stroke-miterlimit:10;" x1="38.212" y1="305.122" x2="28.404" y2="312.597"/>
				
					<line style="fill:none;stroke:#FBFFFF;stroke-width:1.8269;stroke-linecap:round;stroke-linejoin:round;stroke-miterlimit:10;" x1="43.749" y1="312.387" x2="36.847" y2="317.647"/>
				
					<line style="fill:none;stroke:#FBFFFF;stroke-width:1.8269;stroke-linecap:round;stroke-linejoin:round;stroke-miterlimit:10;" x1="49.286" y1="319.652" x2="39.479" y2="327.127"/>
				
					<line style="fill:none;stroke:#FBFFFF;stroke-width:1.8269;stroke-linecap:round;stroke-linejoin:round;stroke-miterlimit:10;" x1="54.824" y1="326.917" x2="47.922" y2="332.177"/>
				
					<line style="fill:none;stroke:#FBFFFF;stroke-width:1.8269;stroke-linecap:round;stroke-linejoin:round;stroke-miterlimit:10;" x1="60.361" y1="334.182" x2="50.553" y2="341.657"/>
				
					<line style="fill:none;stroke:#FBFFFF;stroke-width:1.8269;stroke-linecap:round;stroke-linejoin:round;stroke-miterlimit:10;" x1="65.898" y1="341.447" x2="58.997" y2="346.707"/>
				
					<line style="fill:none;stroke:#FBFFFF;stroke-width:1.8269;stroke-linecap:round;stroke-linejoin:round;stroke-miterlimit:10;" x1="71.436" y1="348.712" x2="61.628" y2="356.187"/>
			</g>
			<g>
				<path style="fill:#5B6CB1;" d="M489.844,415.388c0,0-15.327,9.336-44.119-0.224c-28.792-9.56-35.788-25.802-35.788-25.802
					l15.886-48.775l79.907,26.026L489.844,415.388z"/>
				<polygon style="fill:#070000;" points="449.112,394.619 462.789,352.626 425.823,340.586 415.599,371.978 				"/>
				<path style="fill:#7BC9EF;" d="M409.541,329.442l63.718-6.37c3.349-0.335,6.664,0.906,8.97,3.357l42.414,45.072
					c3.848,4.089,1.838,10.81-3.623,12.116l-61.073,14.595c-4.001,0.956-8.199-0.436-10.836-3.593l-44.452-53.221
					C400.901,336.898,403.707,330.026,409.541,329.442z"/>
				
					<path style="fill:none;stroke:#FBFFFF;stroke-width:1.8269;stroke-linecap:round;stroke-linejoin:round;stroke-miterlimit:10;" d="
					M522.951,377.693l-61.073,14.596c-4.001,0.956-8.199-0.436-10.837-3.593l-44.452-53.221"/>
				<path style="fill:#070000;" d="M465.362,359.232c0,0,19.389,27.119,19.682,32.983l14.973-3.766L465.362,359.232z"/>
				<path style="fill:#EF7F7E;" d="M503.399,392.073c5.96-11.589-13.053-28.57-22.801-36.52c-0.016-3.404-4.024-7.283-9.759-9.15
					c-6.476-2.109-12.691-0.854-13.883,2.804c-1.118,3.434,2.589,7.763,8.404,10.025c7.514,6.975,24.388,23.828,21.967,32.437
					c-4.014,14.269-9.841,21.706,3.348,35.288l4.385-8.179l11.371,3.063C506.433,421.841,494.24,409.881,503.399,392.073z"/>
			</g>
			<g>
				<path style="fill:#EF7F7E;" d="M436.272,154.402l1.437,8.081c0.278,1.563,1.282,2.902,2.705,3.606l44.777,22.158
					c1.675,0.829,3.641,0.83,5.317,0.003l21.675-10.701c0.955-0.471,1.373-1.608,0.951-2.586l-3.464-8.025
					c-0.549-1.273-1.523-2.317-2.755-2.953l-42.14-21.768c-1.58-0.816-3.44-0.889-5.079-0.2l-21.632,9.094
					C436.771,151.655,436.027,153.021,436.272,154.402z"/>
				<path style="fill:#5B6CB1;" d="M461.873,176.708v-11.462l25.555-11.327l-22.653-11.702c-1.58-0.816-3.44-0.889-5.079-0.2
					l-21.632,9.094c-1.293,0.544-2.036,1.91-1.791,3.291l1.437,8.081c0.278,1.563,1.282,2.902,2.705,3.606L461.873,176.708z"/>
				
					<polyline style="fill:none;stroke:#070000;stroke-width:1.8269;stroke-linecap:round;stroke-linejoin:round;stroke-miterlimit:10;" points="
					439.113,153.671 485.186,176.708 506.403,166.169 				"/>
				
					<line style="fill:none;stroke:#070000;stroke-width:1.8269;stroke-linecap:round;stroke-linejoin:round;stroke-miterlimit:10;" x1="485.186" y1="176.708" x2="487.704" y2="188.861"/>
			</g>
			<g>
				<path style="fill:#EF7F7E;" d="M112.65,162.303c0,0-2.75-0.683-3.93-6.058c-1.18-5.374,2.22-7.777,2.22-7.777
					c-0.039-5.145,5.035-6.653,5.037-6.654c-3.189-6.066-8.116-10.165-14.81-10.308c-7.441-0.159-12.422,2.309-15.656,5.075
					c-1.694-0.801-3.666-1.042-5.625-0.549c-1.914,0.482-3.503,1.589-4.614,3.045c-4.138-0.863-9.623-0.637-16.011,2.972
					c-21.969,12.413,3.895,63.296,28.462,57.115c0,0,4.622-1.197,7.026-4.613c3.734,1.871,8.373,0.738,8.373,0.738
					c9.374-2.617,14.969-13.287,16.69-25.172C114.318,168.351,112.65,162.303,112.65,162.303z"/>
				<path style="fill:#F8B193;" d="M112.65,162.303c0,0-2.75-0.683-3.93-6.058c-1.18-5.374,2.22-7.777,2.22-7.777
					c-0.039-5.145,5.035-6.653,5.037-6.654c0,0-5.019-2.631-9.702,1.297c-4.683,3.928-3.99,8.05-3.99,8.05s-2.948,1.981-1.52,11.038
					c1.042,6.612,7.975,7.102,7.975,7.102s3.964,6.552,11.074,0.817C114.318,168.351,112.65,162.303,112.65,162.303z"/>
				
					<path style="fill:none;stroke:#070000;stroke-width:1.8269;stroke-linecap:round;stroke-linejoin:round;stroke-miterlimit:10;" d="
					M75.399,147.055c0.861-2.377,2.85-4.297,5.486-4.96c2.577-0.648,5.177,0.055,7.052,1.662"/>
				
					<path style="fill:none;stroke:#070000;stroke-width:1.8269;stroke-linecap:round;stroke-linejoin:round;stroke-miterlimit:10;" d="
					M70.17,142.311c2.577-0.648,5.177,0.055,7.052,1.661"/>
				
					<path style="fill:none;stroke:#070000;stroke-width:1.8269;stroke-linecap:round;stroke-linejoin:round;stroke-miterlimit:10;" d="
					M90.498,137.197c-2.577,0.648-4.535,2.498-5.426,4.801"/>
				
					<path style="fill:none;stroke:#070000;stroke-width:1.8269;stroke-linecap:round;stroke-linejoin:round;stroke-miterlimit:10;" d="
					M80.885,142.095c0,0-2.227-11.412-7.211-19.439"/>
				<path style="fill:#46B17B;" d="M102.062,113.179c0,0-1.523,11.665-6.743,16.391c-5.22,4.726-15.621,3.07-15.621,3.07
					s0.165-9.648,5.385-14.374C90.303,113.539,102.062,113.179,102.062,113.179z"/>
				
					<path style="fill:none;stroke:#070000;stroke-width:1.8269;stroke-linecap:round;stroke-linejoin:round;stroke-miterlimit:10;" d="
					M78.828,134.12c0,0,6.425-12.573,23.234-20.941"/>
			</g>
			<g>
				
					<ellipse transform="matrix(0.3465 -0.938 0.938 0.3465 -330.7689 384.0792)" style="fill:#FDCE64;" cx="110.274" cy="429.437" rx="29.504" ry="29.504"/>
				
					<path style="fill:none;stroke:#FBFFFF;stroke-width:1.8269;stroke-linecap:round;stroke-linejoin:round;stroke-miterlimit:10;" d="
					M100.145,416.408c1.739-1.353,3.683-2.328,5.776-2.898c6.455-1.759,13.278,0.517,17.383,5.798"/>
				<path style="fill:#5B6CB1;" d="M132.065,457.467c15.456-12.015,18.255-34.365,6.239-49.821
					c-12.015-15.456-34.365-18.255-49.82-6.239c-15.456,12.016-18.255,34.365-6.24,49.82c0.261,0.336,0.533,0.658,0.804,0.982
					L60.24,477.525c-1.976,2.193-2.035,5.442-0.284,7.694c0.215,0.276,0.457,0.537,0.726,0.78c2.462,2.218,6.256,2.02,8.474-0.441
					l23.042-25.574C104.378,467.172,120.237,466.662,132.065,457.467z M91.718,443.862c-7.954-10.232-6.101-25.027,4.131-32.982
					c10.232-7.954,25.027-6.101,32.981,4.13c7.954,10.232,6.102,25.027-4.13,32.982C114.468,455.947,99.672,454.094,91.718,443.862z
					"/>
				
					<line style="fill:none;stroke:#070000;stroke-width:1.8269;stroke-linecap:round;stroke-linejoin:round;stroke-miterlimit:10;" x1="83.048" y1="452.209" x2="92.197" y2="459.983"/>
			</g>
			<g>
				<path style="fill:#FDCE64;" d="M505.326,28.887c0-9.087-6.393-16.479-15.48-16.479h-82.687c-0.828,0-41,49.92-41,49.92l4.5,0
					v22.222l-3,6.236v3h88.688c6.392,0,11.933-3.665,14.665-8.997l29.111-43.04C500.123,41.748,505.326,35.049,505.326,28.887z"/>
				<path style="fill:#FBFFFF;" d="M456.347,92.285H370.66V62.327h85.687c8.273,0,14.979,6.706,14.979,14.979l0,0
					C471.326,85.579,464.62,92.285,456.347,92.285z"/>
				<path style="fill:#5B6CB1;" d="M456.347,93.785h-88.688c-0.828,0-1.5-0.671-1.5-1.5c0-0.829,0.672-1.5,1.5-1.5h88.688
					c7.433,0,13.479-6.047,13.479-13.479c0-7.433-6.047-13.479-13.479-13.479h-88.688c-0.828,0-1.5-0.671-1.5-1.5
					c0-0.829,0.672-1.5,1.5-1.5h88.688c9.087,0,16.479,7.392,16.479,16.479C472.826,86.393,465.434,93.785,456.347,93.785z"/>
				
					<line style="fill:none;stroke:#070000;stroke-width:1.8269;stroke-linecap:round;stroke-linejoin:round;stroke-miterlimit:10;" x1="492.992" y1="12.719" x2="461.326" y2="60.827"/>
				
					<line style="fill:none;stroke:#7BC9EF;stroke-width:1.8269;stroke-linecap:round;stroke-linejoin:round;stroke-miterlimit:10;" x1="398.076" y1="69.132" x2="455.076" y2="69.132"/>
				
					<line style="fill:none;stroke:#7BC9EF;stroke-width:1.8269;stroke-linecap:round;stroke-linejoin:round;stroke-miterlimit:10;" x1="370.66" y1="69.132" x2="388.743" y2="69.132"/>
				
					<line style="fill:none;stroke:#7BC9EF;stroke-width:1.8269;stroke-linecap:round;stroke-linejoin:round;stroke-miterlimit:10;" x1="420.243" y1="84.549" x2="467.706" y2="84.549"/>
				
					<line style="fill:none;stroke:#7BC9EF;stroke-width:1.8269;stroke-linecap:round;stroke-linejoin:round;stroke-miterlimit:10;" x1="370.66" y1="84.549" x2="406.826" y2="84.549"/>
				<polygon style="fill:#EF7F7E;" points="445.076,100.882 436.701,98.132 428.326,100.882 428.326,77.306 445.076,77.306 				"/>
				
					<line style="fill:none;stroke:#7BC9EF;stroke-width:1.8269;stroke-linecap:round;stroke-linejoin:round;stroke-miterlimit:10;" x1="370.66" y1="77.306" x2="469.826" y2="77.306"/>
				<path style="fill:#FBFFFF;" d="M422.898,19.858h40.228c1.608,0,2.559,1.801,1.651,3.129l-5.663,8.282
					c-1.118,1.635-2.972,2.613-4.953,2.613h-42.061c-1.731,0-2.645-2.05-1.487-3.337l7.825-8.7
					C419.575,20.58,421.196,19.858,422.898,19.858z"/>
			</g>
			<g>
				<path style="fill:#46B17B;" d="M338.933,34.77c2.893-3.08,7.507-3.934,11.231-1.939c1.632,0.875,3.462,2.151,5.433,4.001
					c1.97,1.85,3.358,3.597,4.334,5.171c2.225,3.592,1.663,8.251-1.23,11.331l-45.436,48.383l-19.768-18.564L338.933,34.77z"/>
				<path style="fill:#C1D57E;" d="M315.252,70.008c1.633,0.875,3.463,2.151,5.433,4.001c1.97,1.85,3.359,3.596,4.334,5.171
					c2.225,3.592,1.663,8.251-1.23,11.331l23.446-24.967c2.893-3.08,3.455-7.739,1.23-11.331c-0.975-1.574-2.364-3.321-4.334-5.171
					c-1.97-1.85-3.8-3.126-5.433-4.001c-3.725-1.995-8.339-1.141-11.231,1.939l-23.446,24.967
					C306.914,68.867,311.528,68.013,315.252,70.008z"/>
				<path style="fill:#C1D57E;" d="M293.498,83.153c2.191-2.333,8.393-0.069,13.852,5.057c5.459,5.126,8.108,11.174,5.916,13.507
					c-2.191,2.333-8.393,0.069-13.852-5.057C293.955,91.534,291.307,85.487,293.498,83.153z"/>
				<path style="fill:#46B17B;" d="M309.632,99.378l-16.244,10.604c-1.909,1.246-4.424,1.025-6.086-0.536v0
					c-1.655-1.554-2.039-4.036-0.93-6.018l9.5-16.971c0,0,3.683-1,9.104,4.091C310.49,95.726,309.632,99.378,309.632,99.378z"/>
				<path style="fill:#46B17B;" d="M326.728,56.788c5.009-5.334,11.438-7.435,14.36-4.692c2.921,2.743,1.228,9.292-3.781,14.626
					c-5.009,5.334-11.439,7.435-14.36,4.692C320.025,68.67,321.718,62.122,326.728,56.788z"/>
			</g>
			<g>
				<path style="fill:#FDCE64;" d="M455.936,467.749c9.021-13.257,5.094-31.506-8.937-39.79c-11.929-7.042-27.522-4.114-36.08,6.779
					c-5.4,6.873-7.044,15.352-5.377,23.139c0.935,4.368,0.193,8.925-2.319,12.618l23.235,16.01
					c2.495-3.667,6.372-6.196,10.752-6.889C444.555,478.455,451.422,474.382,455.936,467.749z"/>
				<path style="fill:#5B6CB1;" d="M428.864,487.516l-27.558-18.752l-10.904,16.025l3.169,2.156l-1.589,2.335
					c-1.6,2.352-0.991,5.555,1.361,7.155l13.118,8.926c2.352,1.6,5.555,0.991,7.155-1.361l1.589-2.335l2.756,1.875L428.864,487.516z
					"/>
				
					<line style="fill:none;stroke:#070000;stroke-width:1.8269;stroke-linecap:round;stroke-linejoin:round;stroke-miterlimit:10;" x1="397.715" y1="474.041" x2="425.273" y2="492.794"/>
				
					<line style="fill:none;stroke:#070000;stroke-width:1.8269;stroke-linecap:round;stroke-linejoin:round;stroke-miterlimit:10;" x1="394.124" y1="479.319" x2="421.682" y2="498.071"/>
				<polygon style="fill:#070000;" points="393.57,486.946 411.707,499.287 391.982,489.281 				"/>
				
					<path style="fill:none;stroke:#FBFFFF;stroke-width:1.8269;stroke-linecap:round;stroke-linejoin:round;stroke-miterlimit:10;" d="
					M422.492,435.589c6.33-4.086,14.75-4.246,21.371,0.259"/>
				
					<line style="fill:none;stroke:#FBFFFF;stroke-width:1.8269;stroke-linecap:round;stroke-linejoin:round;stroke-miterlimit:10;" x1="411.915" y1="475.984" x2="420.405" y2="457.73"/>
				
					<line style="fill:none;stroke:#FBFFFF;stroke-width:1.8269;stroke-linecap:round;stroke-linejoin:round;stroke-miterlimit:10;" x1="419.615" y1="481.223" x2="433.478" y2="466.626"/>
				
					<path style="fill:none;stroke:#FBFFFF;stroke-width:1.8269;stroke-linecap:round;stroke-linejoin:round;stroke-miterlimit:10;" d="
					M419.33,460.041c0,0,10.353,1.922,12.393,8.433"/>
				
					<path style="fill:none;stroke:#FBFFFF;stroke-width:1.8269;stroke-linecap:round;stroke-linejoin:round;stroke-miterlimit:10;" d="
					M416.516,464.177c0,0,10.353,1.922,12.393,8.433"/>
			</g>
			<g>
				<path style="fill:#EF7F7E;" d="M258.681,471.63l-19.822,10.602c-8.611-16.1-22.438-26.4-39.931-17.044
					c-17.208,9.204-16.602,26.575-7.991,42.675l-19.822,10.602c-14.457-27.03-6.578-59.526,17.564-72.438
					C212.822,433.115,244.224,444.601,258.681,471.63z"/>
				<path style="fill:#5B6CB1;" d="M198.928,465.188c-17.208,9.204-16.602,26.575-7.991,42.675l-19.822,10.602
					c-14.457-27.03-6.578-59.526,17.564-72.438L198.928,465.188z"/>
				<path style="fill:#7BC9EF;" d="M253.026,461.059l-19.821,10.602c-8.611-16.1-26.365-23.45-39.577-16.383
					c-13.212,7.066-16.955,25.914-8.344,42.014l-19.822,10.602c-14.457-27.03-6.578-59.526,17.564-72.438
					C207.168,422.543,238.57,434.029,253.026,461.059z"/>
				<path style="fill:#F8B193;" d="M253.026,461.059l-19.821,10.602c-8.611-16.1-26.365-23.45-39.577-16.383l-10.602-19.822
					C207.168,422.543,238.57,434.029,253.026,461.059z"/>
				
					<rect x="166.96" y="501.884" transform="matrix(0.8818 -0.4716 0.4716 0.8818 -218.4672 144.0779)" style="fill:#5B6CB1;" width="22.479" height="11.989"/>
				
					<rect x="234.703" y="465.651" transform="matrix(0.8818 -0.4716 0.4716 0.8818 -193.3713 171.7446)" style="fill:#EF7F7E;" width="22.479" height="11.989"/>
				
					<path style="fill:none;stroke:#070000;stroke-width:1.8269;stroke-linecap:round;stroke-linejoin:round;stroke-miterlimit:10;" d="
					M253.026,461.059l-19.821,10.602c-8.611-16.1-26.365-23.45-39.577-16.383c-13.212,7.066-16.955,25.914-8.344,42.014
					l-19.822,10.602"/>
				
					<line style="fill:none;stroke:#070000;stroke-width:1.8269;stroke-linecap:round;stroke-linejoin:round;stroke-miterlimit:10;" x1="185.284" y1="497.291" x2="190.938" y2="507.863"/>
				
					<line style="fill:none;stroke:#070000;stroke-width:1.8269;stroke-linecap:round;stroke-linejoin:round;stroke-miterlimit:10;" x1="233.205" y1="471.66" x2="238.859" y2="482.232"/>
				
					<line style="fill:none;stroke:#070000;stroke-width:1.8269;stroke-linecap:round;stroke-linejoin:round;stroke-miterlimit:10;" x1="183.026" y1="435.455" x2="193.628" y2="455.277"/>
			</g>
			<g>
				<polygon style="fill:#FDCE64;" points="189.792,16.843 160.222,42.946 191.959,59.036 208.352,46.996 202.675,14.51 				"/>
				<polygon style="fill:#EF7F7E;" points="189.792,16.843 191.959,59.036 208.352,46.996 202.675,14.51 				"/>
			</g>
			<g>
				<polygon style="fill:#FDCE64;" points="516.132,289.286 486.749,288.343 464.77,268.82 480.424,229.535 509.806,230.478 
					531.786,250.001 				"/>
				<polygon style="fill:#F8B193;" points="480.424,229.535 502.244,249.457 531.786,250.001 509.806,230.478 				"/>
				<polygon style="fill:#EF7F7E;" points="502.244,249.457 486.749,288.343 516.132,289.286 531.786,250.001 				"/>
			</g>
			<g>
				<path style="fill:#FDCE64;" d="M74.948,76.913c-17.201-18.83-45.555-24.636-69.261-12.37
					c-23.706,12.266-35.345,38.764-29.91,63.683l-9.756,5.048l13.786,26.645L100.596,97.42L86.809,70.776L74.948,76.913z
					 M19.473,91.188c8.718-4.511,18.74-3.937,26.677,0.626L4.575,113.325C5.434,104.211,10.755,95.698,19.473,91.188z"/>
				
					<line style="fill:none;stroke:#070000;stroke-width:1.8269;stroke-linecap:round;stroke-linejoin:round;stroke-miterlimit:10;" x1="-12.363" y1="138.06" x2="-5.095" y2="152.106"/>
				
					<line style="fill:none;stroke:#070000;stroke-width:1.8269;stroke-linecap:round;stroke-linejoin:round;stroke-miterlimit:10;" x1="5.401" y1="128.869" x2="12.668" y2="142.915"/>
				
					<line style="fill:none;stroke:#070000;stroke-width:1.8269;stroke-linecap:round;stroke-linejoin:round;stroke-miterlimit:10;" x1="23.164" y1="119.678" x2="30.431" y2="133.724"/>
				
					<line style="fill:none;stroke:#070000;stroke-width:1.8269;stroke-linecap:round;stroke-linejoin:round;stroke-miterlimit:10;" x1="40.927" y1="110.487" x2="48.195" y2="124.533"/>
				
					<line style="fill:none;stroke:#070000;stroke-width:1.8269;stroke-linecap:round;stroke-linejoin:round;stroke-miterlimit:10;" x1="58.69" y1="101.296" x2="65.958" y2="115.342"/>
				
					<line style="fill:none;stroke:#070000;stroke-width:1.8269;stroke-linecap:round;stroke-linejoin:round;stroke-miterlimit:10;" x1="76.453" y1="92.105" x2="83.721" y2="106.152"/>
			</g>
			<g>
				<path style="fill:#FDCE64;" d="M182.137,82.025L182.137,82.025L182.137,82.025c-4.877,1.313-8.687,5.123-10,10l0,0l0,0
					c-1.313-4.877-5.123-8.687-10-10v0l0,0c4.877-1.313,8.687-5.123,10-10v0v0C173.451,76.902,177.26,80.712,182.137,82.025z"/>
				<path style="fill:#FDCE64;" d="M41.297,199.139L41.297,199.139L41.297,199.139c-4.877,1.313-8.687,5.123-10,10l0,0l0,0
					c-1.313-4.877-5.123-8.687-10-10v0l0,0c4.877-1.313,8.687-5.123,10-10v0v0C32.611,194.017,36.42,197.826,41.297,199.139z"/>
				<path style="fill:#FDCE64;" d="M487.069,122.938L487.069,122.938L487.069,122.938c-4.877,1.313-8.687,5.123-10,10l0,0l0,0
					c-1.313-4.877-5.123-8.687-10-10v0l0,0c4.877-1.313,8.687-5.123,10-10v0v0C478.382,117.815,482.192,121.624,487.069,122.938z"/>
				<path style="fill:#FDCE64;" d="M417.991,316.592L417.991,316.592L417.991,316.592c-4.877,1.313-8.687,5.123-10,10l0,0l0,0
					c-1.313-4.877-5.123-8.687-10-10v0l0,0c4.877-1.313,8.687-5.123,10-10v0v0C409.305,311.469,413.114,315.279,417.991,316.592z"/>
				<path style="fill:#FDCE64;" d="M236.993,391.809L236.993,391.809L236.993,391.809c-4.877,1.313-8.687,5.123-10,10l0,0l0,0
					c-1.313-4.877-5.123-8.687-10-10v0l0,0c4.877-1.313,8.687-5.123,10-10v0v0C228.306,386.686,232.115,390.496,236.993,391.809z"/>
				<path style="fill:#FDCE64;" d="M58.577,465.193L58.577,465.193L58.577,465.193c-4.877,1.313-8.687,5.123-10,10l0,0l0,0
					c-1.313-4.877-5.123-8.687-10-10v0l0,0c4.877-1.313,8.687-5.123,10-10v0v0C49.89,460.07,53.699,463.88,58.577,465.193z"/>
				<path style="fill:#FDCE64;" d="M375.156,465.193L375.156,465.193L375.156,465.193c-4.877,1.313-8.687,5.123-10,10l0,0l0,0
					c-1.313-4.877-5.123-8.687-10-10v0l0,0c4.877-1.313,8.687-5.123,10-10v0v0C366.47,460.07,370.279,463.88,375.156,465.193z"/>
			</g>
		</g>
	</g>
	<g>
		<g>
			<path style="fill:#5B6CB1;" d="M316.036,332.106c0,0-5.633,36.757-32.58,37.442c0,0-17.584-0.228-26.947-20.096
				c0,0-8.45,16.671-18.726,13.245c-10.277-3.426-4.597-39.194,15.529-44.531c0,0,5.329-0.152,7.993,4.034l18.706,12.865
				l4.359-15.947L316.036,332.106z"/>
			<path style="fill:#070000;" d="M308.46,353.099c5.899-10.054,7.576-20.993,7.576-20.993l-31.667-12.988l-1.566,5.729
				C287.351,331.34,298.417,346.276,308.46,353.099z"/>
			<path style="fill:#94533F;" d="M258.467,353.134c3.082-12.289,10.036-20.522,13.224-23.79l-10.387-7.143
				c-2.664-4.187-7.993-4.034-7.993-4.034c-20.126,5.337-25.805,41.106-15.529,44.531c10.276,3.426,18.726-13.245,18.726-13.245
				C257.128,350.765,257.784,351.987,258.467,353.134z"/>
			<path style="fill:#46B17B;" d="M246.917,336.892c3.197-14.159,14.387-14.692,14.387-14.692c-2.664-4.187-7.993-4.034-7.993-4.034
				c-20.126,5.337-25.805,41.106-15.529,44.531c10.276,3.426,18.726-13.245,18.726-13.245
				C258.107,339.404,246.917,336.892,246.917,336.892z"/>
			
				<line style="fill:none;stroke:#070000;stroke-width:1.8269;stroke-linecap:round;stroke-linejoin:round;stroke-miterlimit:10;" x1="280.011" y1="335.065" x2="276.833" y2="345.113"/>
		</g>
		<g>
			<path style="fill:#5B6CB1;" d="M336.74,344.428l4.873,61.811c0,0-1.522,4.872,0,8.069c1.522,3.197,21.771,24.055,33.189,21.01
				c11.418-3.045-5.785-28.165-5.785-28.165l2.893-62.724H336.74z"/>
			<path style="fill:#94533F;" d="M369.501,396.648c-11.335,0.145-22.686-2.828-29.026-4.84l1.138,14.43c0,0-1.522,4.872,0,8.069
				c1.522,3.197,21.771,24.055,33.189,21.01c11.418-3.045-5.785-28.165-5.785-28.165L369.501,396.648z"/>
			<path style="fill:#46B17B;" d="M361.785,404.716c-5.938,0.457-7.308,6.851-12.56,5.252c-5.252-1.599-7.612-3.73-7.612-3.73
				s-1.522,4.872,0,8.069c1.522,3.197,21.771,24.055,33.189,21.01c11.418-3.045-5.785-28.165-5.785-28.165
				S367.723,404.259,361.785,404.716z"/>
			<path style="fill:#070000;" d="M371.48,353.749c0,0-18.068,8.064-33.406,7.593l-1.333-16.914h35.17L371.48,353.749z"/>
		</g>
		<g>
			<path style="fill:#46B17B;" d="M372.747,134.103c0,0-5.709-29.688,7.079-33.341c14.029-4.008,18.726,29.916,18.726,29.916
				s29.459-18.041,36.539-3.654c6.347,12.899-15.301,27.404-30.829,28.317L372.747,134.103z"/>
			<path style="fill:#070000;" d="M324.866,162.953c0,0-10.962-21.4,8.221-34.145c19.183-12.746,48.414,0.652,59.984,7.959
				c11.571,7.308,31.946,11.266,31.197,41.41c0,0-1.689,11.564-7.613,21.768c0,0,19.044-3.194,23.612,11.421
				c4.567,14.615-9.439,16.442-9.439,16.442s14.615,4.567,9.135,22.532c-5.481,17.965-39.583,20.401-64.551,1.827
				c0,0-15.833,7.917-33.798,2.436c-17.965-5.481-18.269-14.92-18.269-14.92s-23.75,10.657-30.144-12.789
				c0,0-26.49-13.4-18.269-36.234c7.805-21.676,26.338-10.657,26.338-10.657s1.066-10.125,11.723-11.913
				c10.657-1.788,14.007,2.17,14.007,2.17L324.866,162.953z"/>
		</g>
		<path style="fill:#EF7F7E;" d="M379.436,252.169c0,0,5.643-22.074-9.315-27.48c-14.958-5.406-52.867-20.25-63.828,4.528
			c-10.961,24.778-32.68,41.086-15.198,55.997l58.333,14.671c0,0,11.554,3.893,18.008-9.352
			C373.889,277.288,379.436,252.169,379.436,252.169z"/>
		<g>
			<path style="fill:#94533F;" d="M288.937,222.48l-42.324-6.546c0,0-3.502-3.654-8.678-5.481s-9.915-2.131-12.427-3.958
				c-2.512-1.827-5.88,4.225,1.484,7.593c0,0-17.242,0.856-20.895,4.168c-3.654,3.311,0,3.768,0,3.768s-4.054,1.542-4.51,3.882
				c-0.457,2.341,5.024,2.341,5.024,2.341s-3.254,1.599-2.512,3.654c0.742,2.055,5.709,1.656,5.709,1.656s-2.284,4.111,5.709,4.967
				c7.993,0.856,28.032,0.285,28.032,0.285l40.668,8.335L288.937,222.48z"/>
			<path style="fill:#070000;" d="M276.03,245.466l8.187,1.678l4.72-24.663l-2.455-0.38
				C286.482,222.101,278.668,232.482,276.03,245.466z"/>
			
				<path style="fill:none;stroke:#070000;stroke-width:1.8269;stroke-linecap:round;stroke-linejoin:round;stroke-miterlimit:10;" d="
				M226.993,214.088c0,0,3.33,7.327,12.465,7.022"/>
			
				<line style="fill:none;stroke:#070000;stroke-width:1.8269;stroke-linecap:round;stroke-linejoin:round;stroke-miterlimit:10;" x1="209.808" y1="233.556" x2="224.385" y2="230.397"/>
			
				<path style="fill:none;stroke:#070000;stroke-width:1.8269;stroke-linecap:round;stroke-linejoin:round;stroke-miterlimit:10;" d="
				M206.611,228.247c0,0,7.726-3.178,16.861-3.787"/>
			
				<path style="fill:none;stroke:#070000;stroke-width:1.8269;stroke-linecap:round;stroke-linejoin:round;stroke-miterlimit:10;" d="
				M206.097,222.023c0,0,11.894-2.436,16.005-2.436"/>
			
				<line style="fill:none;stroke:#070000;stroke-width:1.8269;stroke-linecap:round;stroke-linejoin:round;stroke-miterlimit:10;" x1="222.102" y1="217.456" x2="225.299" y2="228.268"/>
			
				<path style="fill:none;stroke:#070000;stroke-width:1.8269;stroke-linecap:round;stroke-linejoin:round;stroke-miterlimit:10;" d="
				M229.714,230.397c0,0,3.045-4.447,7.917-3.746s5.785,2.528,5.785,2.528"/>
		</g>
		<g>
			<path style="fill:#94533F;" d="M391.38,250.342l40.463,14.031c0,0,4.805-1.589,10.234-0.78c5.429,0.809,9.759,2.759,12.834,2.321
				c3.075-0.438,3.218,6.486-4.867,6.014c0,0,14.834,8.829,16.512,13.466c1.678,4.637-1.764,3.33-1.764,3.33s2.86,3.26,2.168,5.542
				c-0.692,2.282-5.535-0.284-5.535-0.284s2.127,2.936,0.509,4.405c-1.618,1.469-5.82-1.21-5.82-1.21s0.093,4.701-7.37,1.716
				c-7.464-2.986-24.903-12.872-24.903-12.872l-39.838-11.675L391.38,250.342z"/>
			<path style="fill:#070000;" d="M402.638,279.806l-18.635-5.461l7.377-24.003l12.084,4.19
				C403.464,254.532,407.358,265.971,402.638,279.806z"/>
			
				<path style="fill:none;stroke:#070000;stroke-width:1.8269;stroke-linecap:round;stroke-linejoin:round;stroke-miterlimit:10;" d="
				M450.045,271.928c0,0-6.373,4.915-14.302,0.369"/>
			
				<line style="fill:none;stroke:#070000;stroke-width:1.8269;stroke-linecap:round;stroke-linejoin:round;stroke-miterlimit:10;" x1="456.115" y1="297.176" x2="444.713" y2="287.56"/>
			
				<path style="fill:none;stroke:#070000;stroke-width:1.8269;stroke-linecap:round;stroke-linejoin:round;stroke-miterlimit:10;" d="
				M461.426,293.982c0,0-5.339-6.426-13.126-11.241"/>
			
				<path style="fill:none;stroke:#070000;stroke-width:1.8269;stroke-linecap:round;stroke-linejoin:round;stroke-miterlimit:10;" d="
				M464.793,288.724c0,0-9.369-7.721-13.002-9.646"/>
			
				<line style="fill:none;stroke:#070000;stroke-width:1.8269;stroke-linecap:round;stroke-linejoin:round;stroke-miterlimit:10;" x1="452.79" y1="277.194" x2="444.903" y2="285.251"/>
			
				<path style="fill:none;stroke:#070000;stroke-width:1.8269;stroke-linecap:round;stroke-linejoin:round;stroke-miterlimit:10;" d="
				M440.004,285.065c0,0-0.608-5.355-5.241-7.017c-4.633-1.661-6.296-0.475-6.296-0.475"/>
		</g>
		<g>
			<path style="fill:#C1D57E;" d="M340.776,229.103l-51.839-11.647c0,0-12.789,20.692-6.394,37.73l24.435,7.486
				c0,0-25.349,34.255-37.224,45.445c0,0,18.954,34.255,59.147,43.389c40.192,9.135,46.13,0,46.13,0l1.37-70.337l16.442,4.567
				c0,0,7.079-6.851,10.048-19.183c1.878-7.799,0-15.529,0-15.529l-39.712-15.695L340.776,229.103z"/>
			<polygon style="fill:#070000;" points="375.515,326.657 375.773,313.405 359.097,318.546 			"/>
			<path style="fill:#070000;" d="M280.011,296.964c5.838,3.875,21.507,13.296,33.894,11.838l-22.811-25.416
				C287.48,287.956,283.64,292.695,280.011,296.964z"/>
			<path style="fill:#46B17B;" d="M374.917,239.97c0,0,10.162,53.532,5.138,82.534c0,0-17.813,1.142-27.176-3.197
				c0,0,14.434-66.557,10.3-83.976L374.917,239.97z"/>
			<path style="fill:#46B17B;" d="M325.429,225.655c0,0-8.175,27.198-18.451,37.018l-23.522,25.577c0,0,17.584,20.781,33.798,24.435
				c0,0,21.09-61.982,21.278-84.086L325.429,225.655z"/>
		</g>
		<g>
			<path style="fill:#EF7F7E;" d="M380.687,287.569c-1.519,0-2.866-1.086-3.144-2.634l-8.781-49.04
				c-0.311-1.738,0.846-3.399,2.583-3.711c1.744-0.312,3.4,0.846,3.711,2.584l8.781,49.039c0.311,1.739-0.846,3.4-2.583,3.711
				C381.064,287.552,380.874,287.569,380.687,287.569z"/>
			<path style="fill:#EF7F7E;" d="M299.422,271.352c-1.203,0-2.355-0.682-2.898-1.844c-0.747-1.599-0.057-3.502,1.542-4.251
				c28.866-13.494,28.035-41.818,27.985-43.017c-0.072-1.761,1.294-3.253,3.055-3.33c1.783-0.079,3.252,1.284,3.333,3.044
				c0.015,0.336,1.157,33.751-31.664,49.095C300.336,271.254,299.876,271.352,299.422,271.352z"/>
		</g>
		<g>
			<g>
				<path style="fill:#94533F;" d="M370.993,227.961l-7.609,9.363c0,0,2.74,18.954-7.765,17.813
					c-10.505-1.142-17.813-23.065-16.671-28.089l3.4-5.938L370.993,227.961z"/>
				<path style="fill:#070000;" d="M365.156,226.565l-22.807-5.455l-3.4,5.938c-0.32,1.407,0.024,4.14,0.914,7.37
					C347.239,233.982,361.444,232.39,365.156,226.565z"/>
				
					<line style="fill:none;stroke:#070000;stroke-width:1.8269;stroke-linecap:round;stroke-linejoin:round;stroke-miterlimit:10;" x1="363.384" y1="237.324" x2="359.32" y2="245.317"/>
			</g>
			<path style="fill:#94533F;" d="M324.866,162.953l-6.394,15.107c0,0-14.615-0.423-17.051,15.68
				c-2.436,16.104,24.664,39.549,57.853,38.027c33.189-1.522,44.455-12.484,44.455-12.484l4.263-12.256l-5.481-19.408
				c0,0-23.446-15.532-24.055-44.458c0,0-17.965,8.83-39.888,6.394L324.866,162.953z"/>
			
				<ellipse transform="matrix(0.6411 -0.7674 0.7674 0.6411 -8.9997 392.9835)" style="fill:#94533F;" cx="415.696" cy="206.115" rx="18.86" ry="14.377"/>
			
				<line style="fill:none;stroke:#070000;stroke-width:1.8269;stroke-linecap:round;stroke-linejoin:round;stroke-miterlimit:10;" x1="424.269" y1="199.945" x2="408.131" y2="207.405"/>
			
				<path style="fill:none;stroke:#070000;stroke-width:1.8269;stroke-linecap:round;stroke-linejoin:round;stroke-miterlimit:10;" d="
				M416.789,203.403c0,0,4.181,4.916-1.706,10.092"/>
			
				<path style="fill:none;stroke:#070000;stroke-width:1.8269;stroke-linecap:round;stroke-linejoin:round;stroke-miterlimit:10;" d="
				M333.925,194.264c0,0-6.623-5.353-4.111-9.464c2.512-4.111,11.647,3.654,11.647,3.654"/>
			
				<path style="fill:none;stroke:#070000;stroke-width:1.8269;stroke-linecap:round;stroke-linejoin:round;stroke-miterlimit:10;" d="
				M337.528,185.636c0,0,6.902-5.403,9.642-13.167"/>
			<path style="fill:#FBFFFF;" d="M355.62,204.896c0,0-1.028,10.847-8.335,10.733c-7.308-0.114-2.494-10.158-2.494-10.158
				S350.824,206.156,355.62,204.896z"/>
			
				<path style="fill:none;stroke:#070000;stroke-width:1.8269;stroke-linecap:round;stroke-linejoin:round;stroke-miterlimit:10;" d="
				M338.949,203.675c0,0,8.45,3.505,16.671,1.221"/>
			
				<path style="fill:none;stroke:#070000;stroke-width:1.8269;stroke-linecap:round;stroke-linejoin:round;stroke-miterlimit:10;" d="
				M359.32,187.973c0,0,9.072-3.437,11.673,5.762"/>
			
				<path style="fill:none;stroke:#070000;stroke-width:1.8269;stroke-linecap:round;stroke-linejoin:round;stroke-miterlimit:10;" d="
				M325.287,175.619c0,0,8.638-3.836,11.418,4.049"/>
			
				<line style="fill:none;stroke:#070000;stroke-width:1.8269;stroke-linecap:round;stroke-linejoin:round;stroke-miterlimit:10;" x1="330.996" y1="161.963" x2="338.949" y2="161.278"/>
			
				<line style="fill:none;stroke:#070000;stroke-width:1.8269;stroke-linecap:round;stroke-linejoin:round;stroke-miterlimit:10;" x1="370.121" y1="169.043" x2="376.058" y2="174.686"/>
		</g>
	</g>
	<g>
		<g>
			<path style="fill:#5B6CB1;" d="M103.193,267.052c3.2-13.348,10.411-41.104,18.461-56.81c3.249-6.338,9.191-10.845,16.165-12.288
				c10.482-2.169,28.682-5.572,45.791-1.307c3.826,0.954,7.281,3.031,9.942,5.941l6.508,8.16c2.208,2.415,3.037,5.787,2.2,8.95
				l-13.542,51.174c-1.257,4.751-5.112,8.371-9.932,9.327l-55.29,10.97c-4.722,0.937-9.572-0.841-12.569-4.608l-4.722-5.934
				C103.165,276.804,102.055,271.8,103.193,267.052z"/>
			
				<path style="fill:none;stroke:#070000;stroke-width:1.8269;stroke-linecap:round;stroke-linejoin:round;stroke-miterlimit:10;" d="
				M117.493,282.636c3.2-13.348,10.24-40.384,18.29-56.09c3.249-6.338,9.191-10.845,16.166-12.288
				c10.482-2.169,43.615-6.932,49.584-1.38"/>
			
				<path style="fill:none;stroke:#FBFFFF;stroke-width:1.8269;stroke-linecap:round;stroke-linejoin:round;stroke-miterlimit:10;" d="
				M127.081,220.64c0,0,4.536-12.153,12.322-13.957c7.786-1.804,45.711-4.736,45.711-4.736s8.049-0.632,12.914,5.142"/>
		</g>
		<g>
			<path style="fill:#F8B193;" d="M211.148,306.163c0,0,14.387,13.702,12.103,25.12c-2.284,11.418-15.072,11.647-15.072,11.647
				s8.906,10.733-1.37,17.127c-9.427,5.866-21.672-10.964-26.571-23.825c-0.869-2.282-0.587-4.833,0.723-6.893
				c1.458-2.292,3.871-5.353,7.578-8.104L211.148,306.163z"/>
			<path style="fill:#070000;" d="M193.564,332.974c0,0,18.84-2.148,27.73-12.918c-3.55-7.605-10.146-13.893-10.146-13.893
				c-21.771,11.723-28.046,20.236-28.046,20.236L193.564,332.974z"/>
			<path style="fill:#EF7F7E;" d="M183.102,326.399c-0.868,1.053-1.578,2.054-2.141,2.94c-1.31,2.06-1.592,4.611-0.723,6.893
				c4.898,12.862,17.144,29.691,26.571,23.825c10.276-6.394,1.37-17.127,1.37-17.127S191.576,342.295,183.102,326.399z"/>
			
				<line style="fill:none;stroke:#FBFFFF;stroke-width:1.8269;stroke-linecap:round;stroke-linejoin:round;stroke-miterlimit:10;" x1="197.578" y1="345.852" x2="208.179" y2="342.93"/>
			
				<line style="fill:none;stroke:#FBFFFF;stroke-width:1.8269;stroke-linecap:round;stroke-linejoin:round;stroke-miterlimit:10;" x1="200.072" y1="352.179" x2="211.252" y2="348.774"/>
		</g>
		<g>
			<path style="fill:#5B6CB1;" d="M197.674,282.641l24.341,27.637c0,0-7.137,21.783-28.451,22.696L179.1,316.592l5.176,24.968
				l-45.933,4.796c0,0-17.172-29.764-14.203-68.51L197.674,282.641z"/>
			<path style="fill:#070000;" d="M184.277,341.56c0.284,5.963-9.044,12.483-21.587,13.081c-12.544,0.597-24.061-2.322-24.346-8.285
				c-0.284-5.963,10.773-12.712,23.317-13.309C174.205,332.449,183.993,335.597,184.277,341.56z"/>
			<path style="fill:#070000;" d="M123.795,291.776c46.475,17.127,73.879-9.135,73.879-9.135l-73.534-4.796
				C123.544,282.572,123.795,291.776,123.795,291.776z"/>
			
				<path style="fill:none;stroke:#070000;stroke-width:1.8269;stroke-linecap:round;stroke-linejoin:round;stroke-miterlimit:10;" d="
				M179.1,316.592c0,0,8.221-7.003,9.439-11.875"/>
		</g>
		<g>
			<path style="fill:#F8B193;" d="M145.463,337.537l13.617,62.257l29.459-6.166c0,0-6.47-46.782-14.197-59.701
				C174.343,333.926,158.624,329.913,145.463,337.537z"/>
			<path style="fill:#EF7F7E;" d="M174.343,333.926c0,0-15.719-4.013-28.879,3.611l2.418,11.056
				c2.596-4.265,7.975-8.847,19.12-9.088c3.615-0.078,6.951,0.035,10.011,0.27C176.146,337.444,175.253,335.448,174.343,333.926z"/>
			<path style="fill:#FBFFFF;" d="M185.803,376.538c-14.501-5.124-25.761,3.738-30.068,7.962l3.345,15.293l29.459-6.166
				C188.539,393.627,187.518,386.245,185.803,376.538z"/>
			<path style="fill:#EF7F7E;" d="M158.371,396.551c0,0,9.235-13.657,20.729-13.657c11.494,0,20.172,4.706,22.228,13.657
				c2.055,8.951-5.938,22.424-12.789,24.251c-6.851,1.827-25.349,3.654-28.317-4.567
				C157.253,408.014,158.371,396.551,158.371,396.551z"/>
			<path style="fill:#070000;" d="M188.539,420.803c6.202-1.654,13.34-12.853,13.111-21.601c-4.21-8.202-17.136-7.823-26.128-5.575
				c-13.702,3.426-15.301,22.608-15.301,22.608C163.191,424.457,181.688,422.63,188.539,420.803z"/>
			
				<line style="fill:none;stroke:#FBFFFF;stroke-width:1.8269;stroke-linecap:round;stroke-linejoin:round;stroke-miterlimit:10;" x1="161.238" y1="410.77" x2="198.345" y2="411.213"/>
		</g>
		<g>
			<path style="fill:#F8B193;" d="M206.281,246.56l20.472,18.041c0,0,7.003,7.993,7.917,20.629
				c0.45,6.228-8.982,16.595-12.027,15.986c-3.045-0.609-5.176-4.872-5.176-4.872s-6.09-0.676-7.156-3.002
				c-1.066-2.326-1.979-10.852-1.066-13.44l-15.529-11.114C193.716,268.787,196.162,255.085,206.281,246.56z"/>
			
				<path style="fill:none;stroke:#070000;stroke-width:1.8269;stroke-linecap:round;stroke-linejoin:round;stroke-miterlimit:10;" d="
				M209.245,279.901c0,0,1.066-4.389,2.284-6.001"/>
			
				<line style="fill:none;stroke:#070000;stroke-width:1.8269;stroke-linecap:round;stroke-linejoin:round;stroke-miterlimit:10;" x1="217.466" y1="296.343" x2="219.445" y2="289.188"/>
			
				<path style="fill:none;stroke:#070000;stroke-width:1.8269;stroke-linecap:round;stroke-linejoin:round;stroke-miterlimit:10;" d="
				M217.466,287.818c0,0,5.211,1.827,6.031,3.958"/>
		</g>
		<g>
			<path style="fill:#5B6CB1;" d="M197.674,263.306c0,0,14.783,0.903,15.231-21.681c0.09-4.543-2.152-12.604-5.964-13.471
				l-9.357-2.336L197.674,263.306z"/>
			<path style="fill:#EF7F7E;" d="M169.357,218.242c0,0-8.498-1.281-21.315,0.407c-10.768,1.419-19.791,44.124-19.791,44.124
				l-4.11,15.072c0,0,22.38,18.498,51.839,15.072c0,0,18.759-2.284,21.695-10.277c0,0,11.647-46.016,2.74-56.064L169.357,218.242z"
				/>
		</g>
		<g>
			<path style="fill:#070000;" d="M288.084,147.057c0,13.333-30.331,29.294-69.377,37.692c-39.046,8.397-66.812,9.005-69.391-2.984
				c-2.578-11.989,27.854-25.181,66.031-36.912C256.428,132.229,285.506,135.068,288.084,147.057z"/>
			<path style="fill:#5B6CB1;" d="M144.389,190.229c0,0-23.502-48.359,10.048-73.686c31.058-23.445,65.989-19.401,85.257,0.305
				c13.397,13.702,13.397,22.837,13.397,22.837L144.389,190.229z"/>
			
				<ellipse transform="matrix(0.1941 -0.981 0.981 0.1941 31.5561 382.8169)" style="fill:#EF7F7E;" cx="248.777" cy="172.202" rx="15.895" ry="12.116"/>
			<path style="fill:#F8B193;" d="M148.956,182.313c0,0,59.071-52.067,104.135-42.628v37.452c0,0,16.747,6.394,14.615,20.705
				c-2.131,14.311-27.708,38.061-68.205,32.58l-2.131,3.958c0,0,6.394,9.439-3.045,11.266c-9.229,1.786-24.968-27.404-24.968-27.404
				S156.568,208.803,148.956,182.313z"/>
			<path style="fill:#FBFFFF;" d="M210.709,202.284c0,0-4.239,9.994,1.553,12.462c6.45,2.748,11.457-9.647,11.457-9.647
				S215.238,204.45,210.709,202.284z"/>
			<path style="fill:#94533F;" d="M148.956,182.313c2.661,9.261,5.954,16.432,9.113,21.85c6.587-4.433,18.398-14.805,17.072-31.593
				c0,0,21.806,7.003,33.283,0c8.228-5.021,3.359-10.041-0.058-12.481c4.161,2.424,12.662,6.733,18.233,5.173
				c7.612-2.132,0-12.484,0-12.484s15.964,5.187,26.49,3.188c0,0,9.439-0.974,9.439-7.755c0-6.781-9.439-8.526-9.439-8.526
				C208.027,130.245,148.956,182.313,148.956,182.313z"/>
			
				<ellipse transform="matrix(0.7674 -0.6411 0.6411 0.7674 -93.1282 141.5549)" style="fill:#F8B193;" cx="148.546" cy="199.139" rx="14.377" ry="18.86"/>
			<path style="fill:#5B6CB1;" d="M173.716,167.537c-1.326,0-2.604-0.724-3.252-1.984c-0.923-1.794-0.216-3.997,1.578-4.921
				c2.98-1.533,73.339-37.412,105.456-26.756c6.5,2.157,11.166,6.051,13.869,11.575c0.887,1.813,0.137,4.001-1.676,4.888
				c-1.811,0.888-4,0.137-4.887-1.676c-1.833-3.746-4.975-6.314-9.606-7.85c-11.899-3.947-32.837-0.706-60.553,9.374
				c-21.316,7.752-39.082,16.854-39.259,16.945C174.849,167.406,174.278,167.537,173.716,167.537z"/>
			
				<path style="fill:none;stroke:#070000;stroke-width:1.8269;stroke-linecap:round;stroke-linejoin:round;stroke-miterlimit:10;" d="
				M180.623,156.431c0,0,27.802-19.183,70.548-23.592"/>
			
				<line style="fill:none;stroke:#070000;stroke-width:1.8269;stroke-linecap:round;stroke-linejoin:round;stroke-miterlimit:10;" x1="139.974" y1="192.97" x2="156.112" y2="200.43"/>
			
				<path style="fill:none;stroke:#070000;stroke-width:1.8269;stroke-linecap:round;stroke-linejoin:round;stroke-miterlimit:10;" d="
				M147.454,196.428c0,0-4.181,4.916,1.706,10.092"/>
			<path style="fill:#070000;" d="M199.501,230.422l-16.899-6.851c0,0,7.308,9.287,14.768,10.809L199.501,230.422z"/>
			
				<path style="fill:none;stroke:#070000;stroke-width:1.8269;stroke-linecap:round;stroke-linejoin:round;stroke-miterlimit:10;" d="
				M231.32,192.133c0,0,6.718-6.557,9.896-1.903c2.131,3.121-3.958,7.917-3.958,7.917"/>
			
				<path style="fill:none;stroke:#070000;stroke-width:1.8269;stroke-linecap:round;stroke-linejoin:round;stroke-miterlimit:10;" d="
				M229.341,175.157c0,0,0.13,10.657,4.386,15.072"/>
			
				<path style="fill:none;stroke:#070000;stroke-width:1.8269;stroke-linecap:round;stroke-linejoin:round;stroke-miterlimit:10;" d="
				M210.709,202.284c0,0,9.737,3.894,17.322,2.547"/>
			<path style="fill:#070000;" d="M212.89,186.956c0,1.808-0.852,3.273-1.903,3.273c-1.051,0-1.903-1.465-1.903-3.273
				c0-1.808,0.852-3.273,1.903-3.273C212.038,183.683,212.89,185.148,212.89,186.956z"/>
			<path style="fill:#070000;" d="M242.501,181.361c0,1.808-0.852,3.273-1.903,3.273c-1.051,0-1.903-1.465-1.903-3.273
				c0-1.808,0.852-3.273,1.903-3.273C241.649,178.088,242.501,179.553,242.501,181.361z"/>
			
				<path style="fill:none;stroke:#94533F;stroke-width:1.8269;stroke-linecap:round;stroke-linejoin:round;stroke-miterlimit:10;" d="
				M205.535,176.756c0,0,2.169-2.626,5.938-3.311"/>
			
				<path style="fill:none;stroke:#94533F;stroke-width:1.8269;stroke-linecap:round;stroke-linejoin:round;stroke-miterlimit:10;" d="
				M242.081,167.712c0,0-3.048-1.52-6.77-0.618"/>
			<path style="fill:#FBFFFF;" d="M234.686,121.35c0.43,4.351-6.412,8.589-15.283,9.466c-8.871,0.877-16.411-1.939-16.841-6.29
				c-0.43-4.351,6.412-8.589,15.283-9.466C226.716,114.182,234.256,116.999,234.686,121.35z"/>
		</g>
		<g>
			<path style="fill:#EF7F7E;" d="M65.45,249.072c0,0-13.017-7.536-24.435-5.938l5.709,8.678l-8.906,5.481
				c0,0,14.159,2.284,22.608,9.591L65.45,249.072z"/>
			<path style="fill:#46B17B;" d="M88.972,218.65l4.111-6.801l78.101,65.541c0,0-26.462,60.498-30.601,72.62
				c-1.827,10.733-24.578,16.062-27.632,7.079L51.748,305.25c0,0-4.567-4.796-2.74-14.615c1.827-9.82,15.072-68.281,15.072-68.281
				l3.882,2.969L88.972,218.65z"/>
			<path style="fill:#070000;" d="M114.777,353.435c0,0,3.026,5.203,12.303,3.148c9.277-2.055,11.263-10.227,11.263-10.227
				S122.428,339.553,114.777,353.435z"/>
			<path style="fill:#FBFFFF;" d="M67.962,225.322l72.011,60.713c0,0-25.881,49.816-25.196,67.4c0,0,10.138-8.906,23.566-7.079
				l25.704-66.454L88.972,218.65L67.962,225.322z"/>
			
				<line style="fill:none;stroke:#7BC9EF;stroke-width:1.8269;stroke-linecap:round;stroke-linejoin:round;stroke-miterlimit:10;" x1="76.493" y1="223.571" x2="90.799" y2="235.598"/>
			
				<polyline style="fill:none;stroke:#7BC9EF;stroke-width:1.8269;stroke-linecap:round;stroke-linejoin:round;stroke-miterlimit:10;" points="
				83.646,220.341 152.011,282.968 131.01,346.355 			"/>
			
				<polyline style="fill:none;stroke:#7BC9EF;stroke-width:1.8269;stroke-linecap:round;stroke-linejoin:round;stroke-miterlimit:10;" points="
				128.403,271.34 143.777,285.065 126.671,335.775 			"/>
			
				<line style="fill:none;stroke:#7BC9EF;stroke-width:1.8269;stroke-linecap:round;stroke-linejoin:round;stroke-miterlimit:10;" x1="164.048" y1="279.901" x2="139.974" y2="286.034"/>
		</g>
		<g>
			<path style="fill:#F8B193;" d="M121.172,257.293c0,0-16.442,13.702-20.096,23.522c0,0,2.512,3.311,2.17,6.851
				c-0.343,3.54,2.74,8.449,0.342,10.505c-2.398,2.055-6.166-2.284-7.422-5.938c0,0-1.827,2.055-2.055,9.135
				c-0.228,7.079-0.799,9.021-2.398,8.906c-1.599-0.114-4.111-2.74-4.111-2.74s-4.453,0.685-6.965-4.225
				c0,0-4.339-1.599-5.709-6.052c-1.37-4.453,0.799-20.324,3.654-26.49c0,0,8.665-27.404,27.29-38.365L121.172,257.293z"/>
			<path style="fill:#070000;" d="M101.463,235.44c4.894,14.332,19.708,21.853,19.708,21.853l-15.3-24.892
				C104.332,233.307,102.867,234.334,101.463,235.44z"/>
			
				<path style="fill:none;stroke:#070000;stroke-width:1.8269;stroke-linecap:round;stroke-linejoin:round;stroke-miterlimit:10;" d="
				M87.602,307.533c0,0-1.599-7.308,0-13.816"/>
			
				<path style="fill:none;stroke:#070000;stroke-width:1.8269;stroke-linecap:round;stroke-linejoin:round;stroke-miterlimit:10;" d="
				M80.637,303.309c0,0,0-7.422,0.571-10.619"/>
			
				<line style="fill:none;stroke:#070000;stroke-width:1.8269;stroke-linecap:round;stroke-linejoin:round;stroke-miterlimit:10;" x1="76.232" y1="299.848" x2="76.754" y2="290.634"/>
			<path style="fill:#EF7F7E;" d="M148.042,218.65c0,0-16.594,1.876-42.171,13.751c0,0,1.142,21.01,18.269,32.2l21.874-7.993
				c0,0,8.492-12.33,8.499-24.663C154.519,222.124,148.042,218.65,148.042,218.65z"/>
			
				<line style="fill:none;stroke:#070000;stroke-width:1.8269;stroke-linecap:round;stroke-linejoin:round;stroke-miterlimit:10;" x1="138.344" y1="259.41" x2="151.087" y2="254.324"/>
			<path style="fill:#5B6CB1;" d="M148.042,218.65c0,0,3.045,14.513-1.313,38.218l11.673,9.795
				c3.495-8.609,8.748-28.857,4.574-48.864c0,0-2.199-0.811-6.864-0.523C150.041,217.652,148.042,218.65,148.042,218.65z"/>
		</g>
	</g>
</g>
<g id="TEXT">
	
		<text transform="matrix(0.9802 -0.1979 0.1979 0.9802 31.3286 428.3778)" style="fill:#FBFFFF; font-family:'Chewy-Regular'; font-size:40.047px;">C</text>
	
		<text transform="matrix(0.9839 0.1787 -0.1787 0.9839 233.7203 64.5081)" style="fill:#FBFFFF; font-family:'Chewy-Regular'; font-size:40.047px;">B</text>
	
		<text transform="matrix(0.9046 -0.4263 0.4263 0.9046 291.8071 465.1691)" style="fill:#FBFFFF; font-family:'Chewy-Regular'; font-size:40.047px;">A</text>
</g>
</svg>
